/* XPM */
static char *result[] = {
/* columns rows colors chars-per-pixel */
"80 80 110 2 ",
"   c #000001",
".  c #090603",
"X  c #0F0B03",
"o  c #0B0B0B",
"O  c #110D02",
"+  c #100F0F",
"@  c #171103",
"#  c #141414",
"$  c #1E1E1E",
"%  c #241B04",
"&  c #281F05",
"*  c #2B2205",
"=  c #3F3009",
"-  c #242424",
";  c #2B2B2B",
":  c #303030",
">  c #3A3937",
",  c #473705",
"<  c #483705",
"1  c #473709",
"2  c #554105",
"3  c #5B4609",
"4  c #5E490A",
"5  c #664F09",
"6  c #675009",
"7  c #6B5209",
"8  c #755A06",
"9  c #7B5F07",
"0  c #755A09",
"q  c #785C08",
"w  c #765F16",
"e  c #564E36",
"r  c #665C3F",
"t  c #454545",
"y  c #555556",
"u  c #5A5A5A",
"i  c #767368",
"p  c #777777",
"a  c #757678",
"s  c #7A7A7B",
"d  c #846508",
"f  c #876809",
"g  c #8A6A09",
"h  c #92710B",
"j  c #A57E0C",
"k  c #AC850A",
"l  c #B58B0B",
"z  c #B98E0B",
"x  c #C6990C",
"c  c #C99A08",
"v  c #D3A109",
"b  c #E4AE0B",
"n  c #E7B20A",
"m  c #E8B20A",
"M  c #F6BA07",
"N  c #FEBF05",
"B  c #F6BC0A",
"V  c #FBBF09",
"C  c #EEB710",
"Z  c #EFB914",
"A  c #FEC007",
"S  c #FEC209",
"D  c #FCC51D",
"F  c #FBC725",
"G  c #FDC926",
"H  c #FCCA2F",
"J  c #FDCD3C",
"K  c #B59944",
"L  c #8C8366",
"P  c #A99F7F",
"I  c #F8CA41",
"U  c #FBD04A",
"Y  c #FCD354",
"T  c #ECCB62",
"R  c #E3CB7D",
"E  c #FDDC7A",
"W  c #858585",
"Q  c #8A8A88",
"!  c #929292",
"~  c #ADAEAF",
"^  c #B5B5B5",
"/  c #BBB9B0",
"(  c #BEBEBE",
")  c #C8BA8E",
"_  c #F4DB87",
"`  c #FBDF86",
"'  c #FCE087",
"]  c #FDE28C",
"[  c #FBE395",
"{  c #FCE599",
"}  c #D8D1B7",
"|  c #FEE8A6",
" . c #FFEAA8",
".. c #C3C3C3",
"X. c #CAC9C3",
"o. c #CACACA",
"O. c #D4D4D4",
"+. c #F7EDCE",
"@. c #E7E3D2",
"#. c #FEF3D4",
"$. c #FCF6DC",
"%. c #FEF8DE",
"&. c #E7E7E7",
"*. c #EAEAEA",
"=. c #FDF9E7",
"-. c #FDFBED",
";. c gray97",
":. c #FEFDF3",
">. c #F7F8FA",
",. c #FFFFFF",
/* pixels */
"; ; ; ; ; ; ; ; ; ; ; ; ; ; ; ; ; ; ; ; ; ; ; ; ; ; ; ; ; ; ; ; ; ; ; ; ; ; ; ; ; ; ; ; ; ; ; ; ; ; ; ; ; ; ; ; ; ; ; ; ; ; ; ; ; ; ; ; ; ; ; ; ; ; ; ; - ; ; ; ",
"; ; ; ; ; ; ; ; ; ; ; ; ; ; ; ; ; ; ; ; ; ; ; ; ; ; ; ; ; ; ; ; ; ; ; ; ; ; ; ; ; ; ; ; ; ; ; ; ; ; ; ; ; ; ; ; ; ; ; ; ; ; ; ; ; ; ; ; ; ; ; ; ; ; ; ; ; ; ; ; ",
"; ; ; ; ; ; ; ; ; ; ; ; ; ; ; ; ; ; ; ; ; ; ; ; ; ; ; ; ; ; ; ; ; ; ; ; ; : ; ; ; ; ; ; ; ; ; ; ; ; ; ; ; ; ; ; ; ; ; ; ; ; ; ; ; ; ; ; ; ; ; ; ; ; ; ; ; ; ; ; ",
"; ; ; ; ; ; ; ; ; ; ; ; ; ; ; ; ; ; ; ; ; ; ; ; ; ; - - - - - - - - - - - - - - - - - ; - - - - - - - - - ; ; ; ; ; ; ; ; ; ; ; ; ; ; ; ; ; ; ; ; ; ; ; ; ; ; ; ",
"; ; ; ; ; ; ; ; ; ; ; ; ; ; ; ; ; ; ; ; ; ; ; ; ; ; -   .   .     .   .   .   . .   .     . .     . .   . ; ; ; ; ; ; ; ; ; ; ; ; ; ; ; ; ; ; ; ; ; ; ; ; ; ; ; ",
"; ; ; ; ; ; ; ; ; ; ; ; ; ; ; ; ; ; ; ; ; ; ; ; ; : -                                                     ; ; ; ; ; ; ; ; ; ; ; ; ; ; ; ; ; ; ; ; ; ; ; ; ; ; ; ",
"; ; ; ; ; ; ; ; ; ; ; ; ; ; ; ; ; ; ; ; ; ; ; ; ; ; -                                                   . : ; ; ; ; ; ; ; ; ; ; ; ; ; ; ; ; ; ; ; ; ; ; ; ; ; ; ",
"; ; ; ; ; ; ; ; ; ; ; ; ; ; ; ; ; ; ; : ; ; ; : ; ; -                                                     ; : ; ; ; ; ; ; ; ; ; ; ; ; ; ; ; ; - ; ; ; ; ; ; ; ; ",
"; ; ; ; ; ; ; ; ; ; ; ; ; ; ; ; ; - # # # # # # # # #       o s ! ! ! ! ! ! ! ! ! ! ! ! t                 # # # # $ # # # # : ; ; ; ; ; ; ; ; ; ; ; ; ; ; ; ; ; ",
"; ; ; ; ; ; ; ; ; ; ; ; ; ; ; ; ; - .                       # O.,.,.,.,.,.,.,.,.,.,.,.,.s                                 . ; ; ; ; ; ; ; ; ; ; ; ; ; ; ; ; ; ; ",
"; ; ; ; ; ; ; ; ; ; ; ; ; ; ; ; ; -                         # O.,.,.,.,.,.,.,.,.,.,.,.,.a                                   ; ; ; ; ; ; ; ; ; ; ; ; ; ; ; ; ; ; ",
"; ; ; ; ; ; ; ; ; ; ; ; ; ; ; ; ; ;                         + O.,.,.,.,.,.,.,.,.,.,.,.,.a                                 . ; ; ; ; ; ; ; ; ; ; ; ; ; ; ; ; ; ; ",
"; ; ; ; ; ; ; ; ; ; ; ; ; ; - ; - -         $ ; ; ; ; - - ; > } #.#.#.#.#.#.#.#.#.#.#.#.L & & & & & & & & O               . ; ; ; ; ; ; ; ; ; ; ; ; ; ; ; ; ; ; ",
"; ; ; ; ; ; ; ; ; ; ; ; ; # .   . .       + ^ *.&.&.&.&.&.&.@.J D F D D D D D D D D D D Z b b n b b b b n 4                 ; ; ; ; ; ; ; ; ; ; ; ; ; ; ; ; ; ; ",
"; ; ; ; ; ; ; ; ; ; ; ; ; +               + o.,.,.,.,.,.,.,.=.H A A A A A A A A A A A A A A A A A A A A A 6                 ; ; ; ; ; ; ; ; ; ; ; ; ; ; ; - ; ; ",
"; ; ; ; ; ; ; ; ; ; ; ; ; +               # X.,.,.,.,.,.,.,.=.H N A A A A A A A A A A A A A A A A A A A A 6                 ; : ; ; ; ; ; ; ; ; ; ; ; ; ; ; ; ; ",
"; ; ; ; ; ; ; ; ; ; ; ; ; #               o o.,.,.,.,.,.,.,.=.H N N N A N N N A A V N N A A A A S A A A S 6               . ; ; ; ; ; ; ; ; ; ; ; ; ; ; ; ; ; ; ",
"; ; ; ; ; ; ; ; ; ; ; ; ; +       : Q Q Q Q R E E E E E E E E ` ' ] ] ' ] ] ' ' ' ' ] ] K 8 8 8 g B A A A z f g g 7 .       # $ $ # ; ; ; ; ; ; ; ; ; ; ; ; ; ; ",
"; ; ; ; ; ; ; ; ; ; ; ; ; +       u ,.,.,.-.J N N N N N N N D #.,.,.,.,.,.,.,.,.,.,.,.,.a       * m A A A S S A S c @               # : ; ; ; ; ; ; ; ; ; ; ; ; ",
"; ; ; ; ; ; ; ; ; ; ; ; ; +       u ,.,.,.=.J A A A A A N N D #.,.,.,.,.,.,.,.,.,.,.,.,.p       * m A A A A A A S c O               $ : ; ; ; ; ; ; ; ; ; ; ; ; ",
"; ; ; ; ; ; ; ; ; ; ; ; ; #       u ,.,.,.-.J N A A A A V N D #.,.,.,.,.,.,.,.,.,.,.,.,.a       * n A A A A A A A c O               # : ; ; ; ; ; ; ; ; ; ; ; ; ",
"- ; ; ; ; ; ; ; - ; ; - ; o       u >.,.,.-.J N A A A V A N D #.,.,.,.-.$.$.$.$.$.$.$.%.i       * n A A A A A A A c O               # : ; ; ; ; ; ; ; ; ; ; ; ; ",
"; ; ; ; ; ; ; ; ; o . o o         u ,.,.,.-.J A A A A A A N D #.,.,.,.{ D F F F F F F G w       * m A A A A A A A c O               # : ; ; ; ; ; ; ; ; ; ; ; ; ",
"; ; ; ; ; ; ; ; -                 u ,.,.,.=.J N A A V A A N D #.,.,.,.] A A A A A A A A 0       * n A A A A A A A c O               # : ; ; ; ; ; ; ; ; ; ; ; ; ",
"; ; ; ; ; ; ; ; ;                 u >.,.,.-.J N A A A A A N D #.,.,.,.] A A A A A A A S 9       * m A A A A A A S c O               # : ; ; ; ; ; ; ; ; ; ; ; ; ",
"; ; ; ; ; ; ; ; -                 u ,.,.,.:.J N A A A A A V D #.,.,.,.] A A A A A A A S q       * m A A A A A V S c X               # : : ; ; ; ; ; ; ; ; ; ; ; ",
"; ; ; ; ; ; ; ; - .     . u s s s P ` ' ' E F V A V A A N N D #.,.,.,.] A A A A A A A S q       * m A A A A A A A b d 9 9 9 *       o $ $ $ $ - ; ; ; ; ; ; ; ; ",
"; ; ; ; ; ; ; ; -       o ..,.,.,. .A N N N A A A A A A V N D #.,.,.,.] A N A A A A A S q       * m A V A A A A A A S S S A 3               . ; ; ; ; ; ; ; ; ; ",
"; ; ; ; ; ; ; ; -       o ( ,.,.,.| S A A A A A A A A A A N D #.,.,.,.] A A N A A A A A 9       * m A A A A A A A A A A A S 3                 ; ; ; ; ; ; ; ; ; ",
"; ; ; ; ; ; ; ; -       o ( ,.,.,.| A A A A A A A A A A A V D #.,.,.,.] A A A A A A V A 0       * m A A V A A A A A A A A S 3               . - ; ; ; ; ; ; ; ; ",
"; ; ; ; ; ; ; ; -       o ( ,.,.,.| S A A A A A A A V A A N D #.,.,.,.] A N A A A A A A 0       * m A A A A A A A A A V A V 3               . - ; ; ; ; ; ; ; ; ",
"; ; ; ; ; ; ; ; -       o ( ,.,.,.| S V A V A A A A A A A N D #.,.,.>.] A A A A A A A A 9       * m A A A A A A A V A A A V 3                 - ; ; ; ; ; ; ; ; ",
"; ; ; ; ; ; ; ; - .     o ( ,.,.,. .S A A A A A A A A V N N D #.,.,.,.] A A A A A A A S q       * n A A A A A A A A A A V V 3               . - ; ; ; ; ; ; ; ; ",
"; ; ; ; ; ; ; : $       o ( ,.,.,. .S A A A A A A A A A A N D #.,.,.,.] A A A A A A A A q       * m A A A A A A A A A A A V 3                 ; ; ; ; ; ; ; ; ; ",
"; ; ; ; ; ; ; ; -       o ( ,.,.,.| S A V A A A A A A A A V D #.,.,.,.] A A A A A A A S q       * m A A A A A A A A A A A V 3                 - ; ; ; ; ; ; ; ; ",
"; ; ; ; ; ; ; ; - .     o ( ,.,.,.| A A A A V A A A A A A N D #.,.,.,.] A N A A A A A S q       * m A A A A A A V A A A A V 3               . ; ; ; ; ; ; ; ; ; ",
"; ; ; ; ; ; ; ; -       o ( ,.,.,.| V V A A A A V A A A V N D #.,.,.,.] A A A M A A A A 9       * m A A A A A A A A A A A V 3               . - ; ; ; ; ; ; ; ; ",
"; ; ; ; ; ; ; ; -       o ( ,.,.,.| A N A A A A A A A A A N D #.,.,.,.] A A A A V A A A 0       * m A A A A A A A A A V A V 3                 ; ; ; ; ; ; ; ; ; ",
"; ; ; ; ; ; ; ; - .     o ( ,.,.,. .S A V A A A A A A A A N D #.,.,.,.] A A A A A A A A 0       * m A A A A A A A A A A A V 3                 ; ; ; ; ; ; ; ; ; ",
"; ; ; ; ; ; ; ; -       o ( ,.,.,. .S A A A A A A A V A V N D #.,.,.,.' A A A A A A A A 9       * m A A A A A A V A A A A V 3               . - ; ; ; ; ; ; ; ; ",
"; ; ; ; ; ; ; ; -       o ( ,.,.,.| S A A A A A V A A A A N D #.,.,.,.] A A A A A A A A 9       * m A A A A A A A A A A A V 3               . ; ; ; ; ; ; ; ; ; ",
"; ; ; ; ; ; ; ; -       o ( ,.,.,.| A V A A A A A A A A A N D #.,.,.,.] A A A A A A A A 0       * m A A A A A A A A A A A V 3                 ; ; ; ; ; ; ; ; ; ",
"; ; ; ; ; ; ; ; -       o ( ,.,.,.| V A A A A A A A A A A N D #.,.,.,.] A A A A A A A A 0       * m A A A A A V A A A A A V 3                 - ; ; ; ; ; ; ; ; ",
"; ; ; ; ; ; ; ; ;       o ( ,.,.,.| V A A A V A A A A A A V D #.,.,.,.] A A A A A A A A 9       * m A A A V A A A A A V A V 3               . ; ; ; ; ; ; ; ; ; ",
"; ; ; ; ; ; ; ; -       o ( ,.,.,. .S V A A A A A A A V V N D #.,.,.,.] A A A A A A A S 9       * m A A A A A A A A A A A V 3               . - ; ; ; ; ; ; ; ; ",
"; ; ; ; ; ; ; ; -       o ( ,.,.,. .S A A A A V A A A A A N D #.,.,.,.] A A A M A A A S q       * m A A A V A A A A A N A V 3                 ; ; ; ; ; ; ; ; ; ",
"; ; ; ; ; ; ; ; -       o ( ,.,.,.| S V A A A A A A A A A N D #.,.,.,.] A A A A A A A A q       * m A A A A A A A V A A A V 3                 ; ; ; ; ; ; ; ; ; ",
"; ; ; ; ; ; ; ; ;       o ( ,.,.,.| S A A A A A A V A A A N D #.,.,.,.] A A A A A A A A q       * m A A A A A A A A A A A V 3               . - ; ; ; ; ; ; ; ; ",
"; ; ; ; ; ; ; ; -       o ( ,.,.,.| S A A A A A A V A A A V D #.,.,.,.] A A A A A A A S 9       * m A A A A A A A A A A A S 3               . ; ; ; ; ; - ; ; ; ",
"; ; ; ; ; ; ; ; -       o ( ,.,.,.| S V A A A A A A A A A N D #.,.,.,.] A A A A A A A A 0       * m A A A A A A A A A A A A 3                 ; ; ; ; ; ; ; ; ; ",
"; ; ; ; ; ; ; : -       o ( ,.,.,.| A A A A V A V A A A N N D #.,.,.,.] A A A A A A A A 0       * m A A A A A A A A A A A V 3                 - ; ; ; ; ; ; ; ; ",
"; ; ; ; ; ; ; ; - .     o ( ,.,.,. .A A A A A A A A A A V N D #.,.,.,.] A A A A A A V A 9       * m A A A A A A A A A A A V 3               . ; ; ; ; ; ; ; ; ; ",
"; ; ; ; ; ; ; ; - .     o ( ,.,.,. .A A N N A A A A A A A N D #.,.,.,.] A A A A A A A A 9       * m A A A A A A A S S S A S 4               . - ; ; ; ; ; ; ; ; ",
"; ; ; ; ; ; ; ; -       . W ~ ~ ~ ) Y Y Y U D N A A A A A N D #.,.,.,.] A A A A A A A S 0       * m A A A A A A A m l k k k =       o $ $ $ $ : ; ; ; ; ; ; ; ; ",
"; ; ; ; ; ; ; ; -           . .   u :.,.:.=.J N A A A A A N D #.,.,.,.] A A A A A A A S 0       * m A A A A A A A c @   .           # : ; : : ; ; ; ; ; ; ; ; ; ",
"; ; ; ; ; ; ; ; -                 u >.,.,.-.J A A A V A A V D #.,.,.,.] A A A A A A A S 9       * m A A A A A A A c O               # : ; ; ; ; ; ; ; ; ; ; ; ; ",
"; ; ; ; ; ; ; ; -                 u ,.,.,.-.J N A A A A A A D #.,.,.>.] N N N S A A A A 0       * m S A A A A A A c X               # : ; ; ; ; ; ; ; ; ; ; ; ; ",
"; ; ; ; ; ; ; ; - o . . .         u >.,.,.-.J N A A A A A N D +.>.;.;._ M M B B M M B V 0       * m A A A A A A A c @               # : ; ; ; ; ; ; ; ; ; ; ; ; ",
"; ; ; ; ; ; ; ; ; : : : : +       u ,.,.,.-.J N A A A A A A C r t t t e , , 1 , , , , , %       * m A A A A A A S c @               # : ; ; ; ; ; ; ; ; ; ; ; ; ",
"; ; ; ; ; ; ; ; ; ; ; ; ; #       u >.,.,.-.J N V A A A A A m &                                 * m A A A A A A S c O             . # : ; ; ; ; ; ; ; ; ; ; ; ; ",
"; ; ; ; ; ; ; ; ; ; ; ; ; +       u ,.,.,.-.J A A A A A A A m *                                 * m A A A A A S A c O               # : ; ; ; ; ; ; ; ; ; ; ; ; ",
"; ; ; ; ; ; ; ; ; ; ; ; ; +       u ,.,.,.-.J A N N A A A A m *                                 * b A A A S S S S c O               # : ; ; ; ; - ; ; ; ; ; ; ; ",
"; ; ; ; ; ; ; ; ; ; ; ; ; o       t ^ ^ ^ / T I U U H A V A C 6 1 1 1 1 1 1 1 1 1 1 1 1 1 1 1 1 6 M A A A v z z z h X       # # # # ; : ; ; ; ; ; ; ; ; ; ; ; ; ",
"; ; ; ; ; ; ; ; ; ; ; ; ; #       . o . o # X.,.:.:.[ A A A A B B M B B B B B B B B B B B B B B B S A A S 7   . . .         ; : : ; ; ; ; ; ; ; ; ; ; ; ; ; ; ; ",
"; ; ; ; ; ; ; ; ; ; ; ; ; o               o o.,.,.,.{ A A A A A S A A A A S A A A A A A A A A A A A A A A 6                 - ; ; ; ; ; ; ; ; ; ; ; ; ; ; ; ; ; ",
"; ; ; ; ; ; ; ; ; ; ; ; ; #               # o.,.,.,.{ N A A A V A A A A A A A A A A A A N A A A A V V N A 6                 - ; ; ; ; ; ; ; ; ; ; ; ; ; ; ; ; ; ",
"; ; ; ; ; ; ; ; ; ; ; ; ; #   . .         o o.,.,.>.{ V A A V A A A A A A A A A A A A A V V N V V V N V V 5                 ; ; ; ; ; ; ; ; ; ; ; ; ; ; ; ; ; ; ",
"; ; ; ; ; ; ; ; ; ; ; ; ; : : : : -         t y y y e 2 2 < 5 b S A A A A A A A A A A A k < 2 2 2 2 2 2 2 %               . ; ; ; ; ; ; ; ; ; ; ; ; ; ; ; ; ; ; ",
"; ; ; ; ; ; ; ; ; ; ; ; ; ; ; ; ; ;                         O v S A A A A A A A A A S S 0                                 . ; ; ; ; ; ; ; ; ; ; ; ; ; ; ; ; ; ; ",
"; ; ; ; ; ; ; ; ; ; ; ; ; ; ; ; ; $                         @ v S A A A A A A A A A S S q                                   ; ; ; ; ; ; ; ; ; ; ; ; ; ; ; ; ; ; ",
"; ; ; ; ; ; ; ; ; ; ; ; ; ; ; ; ; -                         @ v S S S S S A A S S S S S 9                                   ; ; ; ; ; ; ; ; ; ; ; ; ; ; ; ; ; ; ",
"; ; ; ; ; ; ; ; ; ; ; ; ; ; ; ; ; ; # # # # # # # # +       O j c x c x c c x x c x c c 4                 o + # # o # # # # : ; ; ; ; ; ; ; ; ; ; ; ; ; ; ; ; ; ",
"; ; ; ; ; ; ; ; ; ; ; ; ; ; ; ; ; ; ; : ; : ; ; ; : -         X X X X X X X X X X X O O                   ; : ; ; : ; ; ; : ; ; ; ; ; ; ; ; ; ; ; ; ; ; ; ; ; ; ",
"; ; ; ; ; ; ; ; ; ; ; ; ; ; ; ; ; ; ; ; ; ; ; ; ; ; -                                                     - ; ; ; ; ; ; ; ; ; ; ; ; ; ; ; ; ; ; ; ; ; ; ; ; ; ; ",
"; ; ; ; ; ; ; ; ; ; ; ; ; ; ; ; ; ; ; ; ; ; ; ; ; : -                                                     ; ; ; ; ; ; ; ; ; ; ; ; ; ; ; ; ; ; ; ; ; ; ; ; - ; ; ",
"- ; ; ; ; ; ; ; ; ; ; ; ; ; ; ; ; ; ; ; ; ; ; ; ; ; -                                                   . ; ; ; ; ; ; ; ; ; ; ; ; ; ; ; ; ; ; ; ; ; ; ; ; ; ; ; ",
"; ; ; ; ; ; ; ; ; ; ; ; ; ; ; ; ; ; ; ; ; ; ; ; ; ; ; ; ; - - $ - $ $ - $ - $ - $ - $ $ - - $ $ $ - $ - $ ; ; ; ; ; ; ; ; ; ; ; ; ; ; ; ; ; ; ; ; ; ; ; ; ; ; ; ",
"; ; ; ; ; ; ; ; ; ; ; ; ; ; ; ; ; ; ; ; ; ; ; ; ; ; ; ; ; ; ; ; ; ; ; ; ; ; ; ; ; ; ; ; ; ; ; ; ; ; ; ; ; ; ; ; ; ; ; ; ; ; ; ; ; ; ; ; ; ; ; ; ; ; ; ; ; ; ; ; ",
"; ; ; ; ; ; ; ; ; ; ; ; ; ; ; ; ; ; ; ; ; ; ; ; ; ; ; ; ; ; ; ; ; ; ; ; ; ; ; ; ; ; ; ; ; ; ; ; ; ; ; ; ; ; ; ; ; ; ; ; ; ; ; ; ; ; ; ; ; ; ; ; ; ; ; ; ; ; ; ; ",
"; ; ; ; ; ; ; ; ; ; ; ; ; ; ; ; ; ; ; ; ; ; ; ; ; ; ; ; ; ; ; ; ; ; ; ; ; ; ; ; ; ; ; ; ; ; ; ; ; ; ; ; ; ; ; ; ; ; ; ; ; ; ; ; ; ; ; ; ; ; ; ; ; ; ; ; ; ; ; ; "
};
