/* XPM */
static char *_2dfbfd69a164f45b6ffc608d13fbf8cIvwpwQE7kkznT4fO[] = {
/* columns rows colors chars-per-pixel */
"80 80 63 1 ",
"  c black",
". c #070707",
"X c #090909",
"o c #0C0C0C",
"O c gray7",
"+ c #161616",
"@ c #181818",
"# c #1D1D1D",
"$ c gray13",
"% c gray15",
"& c #282828",
"* c #2C2C2C",
"= c gray19",
"- c #373737",
"; c #393939",
": c #3F3F3F",
"> c #414141",
", c gray28",
"< c #4B4B4B",
"1 c #4E4E4E",
"2 c #515151",
"3 c gray33",
"4 c #5B5B5B",
"5 c gray36",
"6 c gray39",
"7 c gray40",
"8 c gray42",
"9 c gray43",
"0 c #717171",
"q c gray46",
"w c gray48",
"e c gray50",
"r c #838383",
"t c #868686",
"y c gray54",
"u c gray56",
"i c #939393",
"p c gray59",
"a c #989898",
"s c gray62",
"d c gray63",
"f c #A7A7A7",
"g c gray66",
"h c gray68",
"j c #B1B1B1",
"k c #B6B6B6",
"l c gray72",
"z c #C3C3C3",
"x c gray78",
"c c #C8C8C8",
"v c #CECECE",
"b c #D0D0D0",
"n c #D7D7D7",
"m c #D8D8D8",
"M c #DDDDDD",
"N c gray88",
"B c #E6E6E6",
"V c #E9E9E9",
"C c #ECECEC",
"Z c gray95",
"A c gray96",
"S c gray98",
"D c white",
/* pixels */
"DDDDDDDDDDDDDDDDDDDDDDDDDDDDDDDDDDDDDDDDDDDDDDDDDDDDDDDDDDDDDDDDDDDDDDDDDDDDDDDD",
"DDDDDDDDDDDDDDDDDDDDDDDDDDDDDDDDDDDDDDDDDDDDDDDDDDDDDDDDDDDDDDDDDDDDDDDDDDDDDDDD",
"DDDDDDDDDDDDDDDDDDDDDDDDDDDDDDDDDDDDDDDDDDDDDDDDDDDDDDDDDDDDDDDDDDDDDDDDDDDDDDDD",
"DDDDDDDDDDDDDDDDDDDDDDDDDDDDDDDDDDDDDDDDDDDDDDDDDDDDDDDDDDDDDDDDDDDDDDDDDDDDDDDD",
"DDDDDDDDDDDDDDDDDDDDDDDDDDDDDDDDDDDDDDDDDDDDDDDDDDDDDDDDDDDDDDDDDDDDDDDDDDDDDDDD",
"DDDDDDDDDDDDDDDDDDDDDDDDDDDDDDDDDDDDDDDDDDDDDDDDDDDDDDDDDDDDDDDDDDDDDDDDDDDDDDDD",
"DDDDDDDDDDDDDDDDDDDDDDDDDDDDDDDDDDDDDDDDDDDDDDDDDDDDDDDDDDDDDDDDDDDDDDDDDDDDDDDD",
"DDDDDDDDDDDDDDDDDDDDDDDDDDDDDDDDDDDDDDDDDDDDDDDDDDDDDDDDDDDDDDDDDDDDDDDDDDDDDDDD",
"DDDDDDDDDDDDDDDDDDDDDDDDDDDDDDDDDDDDDDDDDDDDDDDDDDDDDDDDDDDDDDDDDDDDDDDDDDDDDDDD",
"DDDDDDDDDDDDDDDDDDDDDDDDDDDDDDDDDDDDDDDDDDDDDDDDDDDDDDDDDDDDDDDDDDDDDDDDDDDDDDDD",
"DDDDDDDDDDDDDDDDDDDDDDDDDDDDDDDDDDDDDDDDDDDDDDDDDDDDDDDDDDDDDDDDDDDDDDDDDDDDDDDD",
"DDDDDDDDDDDDDDDDDDDDDDDDDDDDDDDDDDDDDDDDDDDDDDDDDDDDDDDDDDDDDDDDDDDDDDDDDDDDDDDD",
"DDDDDDDDDDDDDDDDDDDDDDDDDDDDDDDDDDDDDDDDDDDDDDDDDDDDDDDDDDDDDDDDDDDDDDDDDDDDDDDD",
"DDDDDDDDDDDDDDDDDDDDDDDDDDDDDDDDDDDDDDDDDDDDDDDDDDDDDDDDDDDDDDDDDDDDDDDDDDDDDDDD",
"DDDDDDDDDDDDDDDDDDDDDDDDDDDDDDDDDDDDDDDDDDDDDDDDDDDDDDDDDDDDDDDDDDDDDDDDDDDDDDDD",
"DDDDDDDDDDDDDDDDDDDDDDDDDDDDDDDDDDDDDDDDDDDDDDDDDDDDDDDDDDDDDDDDDDDDDDDDDDDDDDDD",
"DDDDDDDDDDDDDDDDDDDDDDDDDDDDDDDDDDDDDDDDDDDDDDDDDDDDDDDDDDDDDDDDDDDDDDDDDDDDDDDD",
"DDDDDDDDDDDDDDDDDDDDDDDDDDDDDDDDDDDDDDDDDDDDDDDDDDDDDDDDDDDDDDDDDDDDDDDDDDDDDDDD",
"DDDDDDDDDDDDDDDDDDDDDDDDDDDDDDDDDDDDDDDDDDDDDDDDDDDDDDDDDDDDDDDDDDDDDDDDDDDDDDDD",
"DDDDDDDDDDDDDDDDDDDDDDDDDDDDDDDDDDDDDDDDDDDDDDDDDDDDDDDDDDDDDDDDDDDDDDDDDDDDDDDD",
"DDDDDDDDDDDDDDDDDDDDDDDDDDDDDDDDDDDDDDDDDDDDDDDDDDDDDDDDDDDDDDDDDDDDDDDDDDDDDDDD",
"DDDDDDDDDDDDDDDDDDDDDDDDDDDDDDDDDDDDDDDDDDDDDDDDDDDDDDDDDDDDDDDDDDDDDDDDDDDDDDDD",
"DDDDDDDDDDDDDDDDDDDDDDDDDDDDDDDDDDDDDDDDDDDDDDDDDDDDDDDDDDDDDDDDDDDDS>++<DDDDDDD",
"DDDDDDDDDDDDDDDDDDDDDDDDDDDDDDDDDDDDDDDDDDDDDDDDDDDN6%4nDDDDDDDDDDDb     .MDDDDD",
"DDDDDDDDDDDDDDDDDDDDDDDDDDDDDDDDDDDDDS<9SDDDDDDDDDi     wDDDDDDDDDA   07  .DDDDD",
"DDDDDDDDDDDDDDDDDDDDDDDDDDDDDDDDDDDDM    =vDDDDDDC       MDDDDDDDD$  VDDm  *DDDD",
"DDDDDDDDDDDDDDDDDDDDDDDDDDDDDDDDDDDu       OeDDDDu       :DDDDDDDx  kDDDDd  nDDD",
"DDDDDDDDDDDDDDDDDDDDDDDDDDDDDDDDDD-           3AD3       &DDDDDDDO $DDDDDD+ &DDD",
"DDDDDDDDDDDSmmmmmmmmmmmmmmmmmDDDDx    dZs      #Du       ;DDDDDDZ  lDDDDDDp  DDD",
"DDDDDDDDDDD;                 qDDDm  OVDDDDm-    eV       nDDDDDD7  DDDDDDDD  tDD",
"DDDDDDDDDDDSBBBBBBBBBBBBBBBBBDDDDDbhSDDDDDDr     Nf     rDDDDDDD# <DDDDDDDD& &DD",
"DDDDDDDDDDDDDDDDDDDDDDDDDDDDDDDDDDDDDDDDDA*      +SC,&:mDDDDDDDA  zDDDDDDDDg .DD",
"DDDDDDDDDDDDDDDDDDDDDDDDDDDDDDDDDDDDDDDDxX        0DDDDDDDDDDDDn  VDDDDDDDDM  MD",
"DDDDDDDDDDDDDDDDDDDDDDDDDDDDDDDDDDDDDDDq           DDDDDDDDDDDDg XDDDDDDDDDD  zD",
"DDDDDDDDDDDDDDDDDDDDDDDDDDDDDDDDDDDDDA$            DDDDDDDDDDDD6 %DDDDDDDDDD@ rD",
"DDDDDDDDDDDDDDDDDDDDDDDDDDDDDDDDDDDDZ             %DDDDDDDDDDDD& ;DDDDDDDDDD= <D",
"DDDDDDDDDDDDDDDDDDDDDDDD2 @ZDDDDDDDD>         .   cDDDDDDDDDDDD  6DDDDDDDDDD> #D",
"D$                 MDDDc   XVDDDDDpD#        67  oDDDDDDDDDDDDD  tDDDDDDDDDD7  D",
"DgqqqqqqqqqqqqqqqqqADDDd    .CDDDy D&      XbDo  0DDDDDDDDDDDDD  dDDDDDDDDDDe  D",
"DDDDDDDDDDDDDDDDDDDDDDDAo    .BDy  De     ,DDx   OkSDDDDDDDDDDD  hDDDDDDDDDDy  D",
"DDDDDDDDDDDDDDDDDDDDDDDDZ.    Xw   tD     VDD7     .<CDDDDDDDDD  hDDDDDDDDDDy  D",
"DDDDDDDDDDDDDDDDDDDDDDDDDZo        .Sp    ODDDy@      yDDDDDDDD  dDDDDDDDDDDe  D",
"DDDDDDDDDDDDDDDDDDDDDDDDDDZ.       ,DD%    5DDDDn;     DDDDDDDD  tDDDDDDDDDD7  D",
"DDDDDDDDDDDDDDDDDDDDDDDDDDDA+     >DDDD.    xDDDDDD9o dDDDDDDDD  6DDDDDDDDDD> #D",
"DDDDDDDDDDDDDDDDDDDDDDDDDDDDAo   :DDDDDn     DDDDDDDDSDDDDDDDDD& ;DDDDDDDDDD* 1D",
"DDDDvaaaaaaaaaaaaaaaaaZDDDDDDA+ ,DDDDDDDw    gDDDDDDDDDDDDDDDDD6 %DDDDDDDDDD@ rD",
"DDDD;                 kDDDDDDDSvDDDDDDDD<    SDDDDDDDDDDDDDDDDDg XDDDDDDDDDD  zD",
"DDDDDDDDDDDDDDDDDDDDDDDDDDDDDDDDDDDDDDDS.   &DDDDDDDDDDDDDDDDDDn  VDDDDDDDDM  ND",
"DDDDDDDDDDDDDDDDDDDDDDDDDDDDDDDDDDDDDDDj    vDDDDDDDDDDDDDDDDDDA  zDDDDDDDDg .DD",
"DDDDDDDDDDDDDDDDDDDDDDDDDDDDDDDDDDDDDDDo   ODDDDDDDDDDDDDDDDDDDD# <DDDDDDDD& &DD",
"DDDDDDDDDDDDDDDDDDDDDDDDDDDDDDDDDDDDDDV    wDDDDDDDDDDDDDDDDDDDD8  DDDDDDDD  tDD",
"DDDDDDDDDDDDDDDDDDDDDDDDDDDDDDDDDDDDDD,    DDDDDDDDDDDDDDDDDDDDDA  lDDDDDDp  DDD",
"DDDDDDDDDDDDDDDDDDDDDDDDDDDDDDDDDDDDDS.   :DDDDDDDDDDDDDDDDDDDDDDO #DDDDDD+ &DDD",
"DDDDDDDDDDDDDDDDDDDDDDDDDDDDDDDDDDDDDh    nDDDDDDDDDDDDDDDDDDDDDDx  kDDDDd  nDDD",
"DDDDDDDDDDDDDDDDDDDDDDDDDDDDDDDDDDDDD%   +DDDDDDDDDDDDDDDDDDDDDDDD%  VDDn  =DDDD",
"DDDDDDDDDDDDDDDDDDDDDDDDDDDDDDDDDDDDDq   yDDDDDDDDDDDDDDDDDDDDDDDDA   86  .DDDDD",
"DDDDDDDDDDDDDDDDDDDDDDDDDDDDDDDDDDDDDDi 6DDDDDDDDDDDDDDDDDDDDDDDDDDn     .NDDDDD",
"DDDDDDDDDDDDDDDDDDDDDDDDDDDDDDDDDDDDDDDDDDDDDDDDDDDDDDDDDDDDDDDDDDDDD,++1DDDDDDD",
"DDDDDDDDDDDDDDDDDDDDDDDDDDDDDDDDDDDDDDDDDDDDDDDDDDDDDDDDDDDDDDDDDDDDDDDDDDDDDDDD",
"DDDDDDDDDDDDDDDDDDDDDDDDDDDDDDDDDDDDDDDDDDDDDDDDDDDDDDDDDDDDDDDDDDDDDDDDDDDDDDDD",
"DDDDDDDDDDDDDDDDDDDDDDDDDDDDDDDDDDDDDDDDDDDDDDDDDDDDDDDDDDDDDDDDDDDDDDDDDDDDDDDD",
"DDDDDDDDDDDDDDDDDDDDDDDDDDDDDDDDDDDDDDDDDDDDDDDDDDDDDDDDDDDDDDDDDDDDDDDDDDDDDDDD",
"DDDDDDDDDDDDDDDDDDDDDDDDDDDDDDDDDDDDDDDDDDDDDDDDDDDDDDDDDDDDDDDDDDDDDDDDDDDDDDDD",
"DDDDDDDDDDDDDDDDDDDDDDDDDDDDDDDDDDDDDDDDDDDDDDDDDDDDDDDDDDDDDDDDDDDDDDDDDDDDDDDD",
"DDDDDDDDDDDDDDDDDDDDDDDDDDDDDDDDDDDDDDDDDDDDDDDDDDDDDDDDDDDDDDDDDDDDDDDDDDDDDDDD",
"DDDDDDDDDDDDDDDDDDDDDDDDDDDDDDDDDDDDDDDDDDDDDDDDDDDDDDDDDDDDDDDDDDDDDDDDDDDDDDDD",
"DDDDDDDDDDDDDDDDDDDDDDDDDDDDDDDDDDDDDDDDDDDDDDDDDDDDDDDDDDDDDDDDDDDDDDDDDDDDDDDD",
"DDDDDDDDDDDDDDDDDDDDDDDDDDDDDDDDDDDDDDDDDDDDDDDDDDDDDDDDDDDDDDDDDDDDDDDDDDDDDDDD",
"DDDDDDDDDDDDDDDDDDDDDDDDDDDDDDDDDDDDDDDDDDDDDDDDDDDDDDDDDDDDDDDDDDDDDDDDDDDDDDDD",
"DDDDDDDDDDDDDDDDDDDDDDDDDDDDDDDDDDDDDDDDDDDDDDDDDDDDDDDDDDDDDDDDDDDDDDDDDDDDDDDD",
"DDDDDDDDDDDDDDDDDDDDDDDDDDDDDDDDDDDDDDDDDDDDDDDDDDDDDDDDDDDDDDDDDDDDDDDDDDDDDDDD",
"DDDDDDDDDDDDDDDDDDDDDDDDDDDDDDDDDDDDDDDDDDDDDDDDDDDDDDDDDDDDDDDDDDDDDDDDDDDDDDDD",
"DDDDDDDDDDDDDDDDDDDDDDDDDDDDDDDDDDDDDDDDDDDDDDDDDDDDDDDDDDDDDDDDDDDDDDDDDDDDDDDD",
"DDDDDDDDDDDDDDDDDDDDDDDDDDDDDDDDDDDDDDDDDDDDDDDDDDDDDDDDDDDDDDDDDDDDDDDDDDDDDDDD",
"DDDDDDDDDDDDDDDDDDDDDDDDDDDDDDDDDDDDDDDDDDDDDDDDDDDDDDDDDDDDDDDDDDDDDDDDDDDDDDDD",
"DDDDDDDDDDDDDDDDDDDDDDDDDDDDDDDDDDDDDDDDDDDDDDDDDDDDDDDDDDDDDDDDDDDDDDDDDDDDDDDD",
"DDDDDDDDDDDDDDDDDDDDDDDDDDDDDDDDDDDDDDDDDDDDDDDDDDDDDDDDDDDDDDDDDDDDDDDDDDDDDDDD",
"DDDDDDDDDDDDDDDDDDDDDDDDDDDDDDDDDDDDDDDDDDDDDDDDDDDDDDDDDDDDDDDDDDDDDDDDDDDDDDDD",
"DDDDDDDDDDDDDDDDDDDDDDDDDDDDDDDDDDDDDDDDDDDDDDDDDDDDDDDDDDDDDDDDDDDDDDDDDDDDDDDD",
"DDDDDDDDDDDDDDDDDDDDDDDDDDDDDDDDDDDDDDDDDDDDDDDDDDDDDDDDDDDDDDDDDDDDDDDDDDDDDDDD"
};
