/* XPM */
static char *result[] = {
/* columns rows colors chars-per-pixel */
"80 80 139 2 ",
"   c #000000",
".  c #0B0605",
"X  c #0C0905",
"o  c #0A0A0A",
"O  c #110D07",
"+  c #110808",
"@  c #1A0C0C",
"#  c #0C0F11",
"$  c #0F1214",
"%  c #151516",
"&  c #121619",
"*  c #14181B",
"=  c #1B1B1B",
"-  c #231C0E",
";  c #251211",
":  c #2B1514",
">  c #261F10",
",  c #311717",
"<  c #311817",
"1  c #361A1A",
"2  c #3C1D1C",
"3  c #2C2312",
"4  c #1B2125",
"5  c #1F262B",
"6  c #242424",
"7  c #2B2B2B",
"8  c #242C32",
"9  c #2D373E",
"0  c #323232",
"q  c #3D3D3D",
"w  c #411F1F",
"e  c #42201F",
"r  c #43361C",
"t  c #452221",
"y  c #4A2323",
"u  c #552929",
"i  c #5C2C2B",
"p  c #622F2F",
"a  c #673231",
"s  c #683231",
"d  c #703635",
"f  c #743837",
"g  c #763938",
"h  c #7B3B3A",
"j  c #4F4021",
"k  c #534322",
"l  c #584624",
"z  c #715B2F",
"x  c #333E45",
"c  c #354149",
"v  c #39464F",
"b  c #454545",
"n  c #4B4B4B",
"m  c #555555",
"M  c #5B5B5B",
"N  c #4A5A65",
"B  c #5A6D7B",
"V  c #5D717F",
"C  c #636363",
"Z  c #6C6C6C",
"A  c #717171",
"S  c #797979",
"D  c #823F3E",
"F  c #876C37",
"G  c #8D723A",
"H  c #94773D",
"J  c #864140",
"K  c #8D4443",
"L  c #924746",
"P  c #954847",
"I  c #9E4C4B",
"U  c #A14D4C",
"Y  c #A7504F",
"T  c #AA5251",
"R  c #B15554",
"E  c #B75857",
"W  c #BC5B5A",
"Q  c #8E7544",
"!  c #947B49",
"~  c #C35E5D",
"^  c #C7605E",
"/  c #C9615F",
"(  c #CC6361",
")  c #D46665",
"_  c #D76866",
"`  c #D96967",
"'  c #DC6A69",
"]  c #E46E6C",
"[  c #E9706E",
"{  c #ED7271",
"}  c #F27573",
"|  c #F97876",
" . c #FF7C7A",
".. c #99804D",
"X. c #BB964D",
"o. c #BF9A4F",
"O. c #C19C50",
"+. c #CCA454",
"@. c #E3B65E",
"#. c #E6B95F",
"$. c #ECBD61",
"%. c #EFC062",
"&. c #FBC967",
"*. c #FFCD69",
"=. c #FFD06A",
"-. c #FFD57D",
";. c #637887",
":. c #6B8292",
">. c #728B9C",
",. c #758FA1",
"<. c #7791A3",
"1. c #7993A6",
"2. c #7C96A9",
"3. c #7E99AC",
"4. c gray52",
"5. c #8D8D8D",
"6. c #95938F",
"7. c #919191",
"8. c #9B9995",
"9. c #9B9B9B",
"0. c #839FB3",
"q. c #85A2B6",
"w. c #88A6BA",
"e. c #8AA9BE",
"r. c #A0A0A0",
"t. c #A9A9A9",
"y. c #B6B6B6",
"u. c #BCBCBC",
"i. c #8DACC1",
"p. c #C1C1C1",
"a. c #CBCBCB",
"s. c #D2D2D2",
"d. c #DBDBDB",
"f. c #E4E4E4",
"g. c #EBEBEB",
"h. c #FFF9ED",
"j. c #F4F4F4",
"k. c #FFFDF2",
"l. c #FFFFFF",
/* pixels */
"l.l.l.l.l.l.l.l.l.l.l.l.l.l.l.l.l.l.l.l.l.l.l.l.l.l.l.l.l.l.l.l.l.l.l.l.l.l.l.l.l.l.l.l.l.l.l.l.l.l.l.l.l.l.l.l.l.l.l.l.l.l.l.l.l.l.l.l.l.l.l.l.l.j.d.t.Z 7 = Z ",
"l.l.l.l.l.l.l.l.l.l.l.l.l.l.l.l.l.l.l.l.l.l.l.l.l.l.l.l.l.l.l.l.l.l.l.l.l.l.l.l.l.l.l.l.l.l.l.l.l.l.l.l.l.l.l.l.l.l.l.l.l.l.l.l.l.l.l.l.l.j.f.u.4.m 6 o       = ",
"l.l.l.l.l.l.l.l.l.l.l.l.l.l.l.l.l.l.l.l.l.l.l.l.l.l.l.l.l.l.l.l.l.l.l.l.l.l.l.l.l.l.l.l.l.l.l.l.l.l.l.l.l.l.l.l.l.l.l.l.l.l.l.l.l.j.f.u.5.n 6 o             . % ",
"l.l.l.l.l.l.l.l.l.l.l.l.l.l.l.l.l.l.l.l.l.l.l.l.l.l.l.l.l.l.l.l.l.l.l.l.l.l.l.l.l.l.l.l.l.l.l.l.l.l.l.l.l.l.l.l.l.l.l.l.l.j.g.u.4.m 7 o             O 3 r .   % ",
"l.l.l.l.l.l.l.l.l.l.l.l.l.l.l.d.y.t.t.t.t.t.t.t.t.t.t.t.t.t.t.t.t.t.t.t.t.t.t.t.t.t.t.t.t.t.t.t.t.t.t.t.t.t.t.t.t.t.t.t.5.M 7 o             X 3 l G O.$.+.X   % ",
"l.l.l.l.l.l.l.l.l.l.l.l.l.l.d.7                                                                                 X                   X - k G o.#.&.=.=.=.+.O   % ",
"l.l.l.l.l.l.l.l.l.l.l.l.l.l.t.                            o   .                                           o   .             . - j F X.#.&.=.*.*.*.*.*.=.+.O   * ",
"l.l.l.l.l.l.l.l.l.l.l.l.l.l.t.    o q q q q q q q q q q c r x q q b q q q q q q q q q q q q q q q q q q c r x q q q =     2 X.@.&.=.=.*.*.*.*.*.*.*.*.=.+.O   % ",
"l.l.l.l.l.l.l.l.l.l.l.l.l.l.t.    q g.j.j.j.j.j.j.j.j.j.j.j.j.j.j.j.j.j.j.j.j.j.j.j.j.j.j.j.j.j.j.j.j.j.j.j.j.j.j.k.Z     z =.=.*.*.*.*.*.&.*.*.*.*.*.=.+.O   % ",
"l.l.l.l.l.l.l.l.l.l.l.l.l.l.t.    q j.l.l.l.l.l.l.l.l.l.l.l.l.l.l.l.l.l.l.l.l.l.l.l.l.l.l.l.l.l.l.l.l.l.l.l.l.l.l.l.A     z =.*.*.*.*.*.*.*.*.*.*.*.*.=.+.O   % ",
"l.l.l.l.l.l.l.l.l.l.l.l.l.l.t.    q j.l.l.l.l.l.l.l.l.l.l.l.l.l.l.l.l.l.l.l.l.l.l.l.l.l.l.l.l.l.l.l.l.l.l.l.l.l.l.l.A     z *.*.*.*.*.*.*.*.*.*.*.*.*.=.+.O   % ",
"a.7.5.5.5.5.5.5.5.5.5.5.5.7.C     6 5.5.5.5.5.5.5.5.5.5.5.5.5.5.5.5.5.5.5.5.5.5.5.5.5.5.5.5.5.5.5.5.5.5.5.9.g.l.l.l.A     z =.*.*.*.*.*.*.*.*.*.*.*.*.=.+.O   % ",
"6                                                                                                           4.l.l.l.A     z *.*.*.*.*.*.*.*.*.*.*.*.*.=.+.O   % ",
"                                                                                                            m l.l.l.A     z *.*.*.*.*.*.*.*.*.*.*.*.*.=.+.O   % ",
"    . u a a a a a a s s a a a a s s a a a a s s a a a a a s s p a a a s a a a s a a a s a a a s a a a 2     m l.l.l.A     z =.*.*.*.*.&.*.*.*.*.*.*.*.=.+.O . % ",
"    + /  . . . . . . . . . . . . . . . . . . . . . . . . . . . . . . . . . . . . . . . . . . . . . . .K     m l.l.l.A     z =.*.*.*.*.*.*.*.*.*.*.*.*.=.+.O   % ",
"    . (  . . . . . . . . . . . . . . . . . . . . . . . . . . . . . . . . . . . . . . . . . . . . . . .K     m l.l.l.A     z *.*.*.*.*.*.*.*.*.*.*.*.*.*.+.O   % ",
"    + (  . .| ( ~ W ~ ~ ~ _  . . . .` ~ }  . . . . .] ~ [  . . .} ~ '  . . .| ( E E E R E E E _  . . .K     m l.l.l.A     z *.*.*.*.*.*.*.*.*.*.*.*.*.=.+.O   % ",
"    + (  . .P + . . . . o @ T  . ._ , . d |  . . .] t . i }  . .g . 1 `  . .Y +   o . .   o . @ ^  . .K     m j.l.l.A     z =.*.*.*.*.*.&.*.*.*.*.*.*.*.+.O   % ",
"    + ( @.| y               g  . .W .   . U  . . .s     ; ]  .} 1     E  . .g                   I  . .K     M l.l.l.A     z =.*.*.*.*.*.*.*.*.*.*.*.*.=.+.O   % ",
"    + (  .| y o   @ : : ; w /  . .{ y     ; )  .Y .     g  . .{ 1   . T  . .( y , ;     . : : i ]  . .K     m l.l.l.A     z *.*.*.*.*.*.*.*.*.*.*.*.*.=.+.O   % ",
"    + (  .| y     K { [ [ }  . . . .( @     u ( :     e [  . .} 1   . R  . . .| } E .   ; _ } |  . . .K     m l.l.l.A     z *.*.*.*.*.*.*.*.*.*.*.*.*.=.+.O   % ",
"    + (  .| y     I  . . . . . . . . .L .   . @     @ ~  . . .{ 1     R  . . . . ./ .   ; [  . . . . .K     m l.l.l.A     z =.*.*.*.*.*.*.*.*.*.*.*.*.=.+.O   % ",
"    # (  .| y     K ] ' ] |  . . . . .} i         . K  . . . .{ 1     R  . . . . .~ .   ; ]  . . . . .K     m l.l.l.A     z =.*.*.*.&.*.*.*.*.*.*.*.*.=.+.O   % ",
"    + (  .| y     + ; ; ; p {  . .|  . .` :       i }  . . . .} 1   . T  . . . . .( .   ; ]  . . . . .K     m l.l.l.A     z *.*.*.*.*.*.*.&.*.*.*.*.*.=.+.O   % ",
"    + (  .| y             o /  . . . . .{ 2       s  . . . . .{ 1     E  . . . . .^ .   ; ]  . . . . .K     M j.l.l.A     z *.*.*.*.*.*.*.*.*.*.*.*.*.=.+.O   % ",
"    + (  .| y     . . + + y [  . . . .| h         . T  . . . .{ 1   . T  . . . . .^ .   : ]  . . . . .K     m l.l.l.A     z =.*.*.*.*.*.*.*.*.*.*.*.*.=.+.O   % ",
"    + (  .| y     h ( ( ( {  . . . . .E +     .     < '  . . .} 1     E  . . . . .~ .   ; ]  . . . . .K     m l.l.l.A     z =.*.*.*.*.*.*.*.*.*.*.*.*.=.+.O   % ",
"    + (  .| y     I  . .@. . . .|  .] <     2 I @     p }  . .{ 1     R  . . . . .(     ; ]  . . . . .K     m l.l.l.A     z *.*.*.*.*.*.*.*.*.*.*.*.*.=.+.O   % ",
"    + (  .| y     P | } | |  . . .| a     + E  .J     . I  . .} 1   . R  . . . . .~ o   ; ]  . . . . .K     m l.l.l.A     z *.*.*.*.*.*.*.*.*.*.*.*.*.=.+.O   % ",
"    + (  .| y     ; w w w i _  . .U .     D  . .} y     ; (  .{ 1     R  . . . . .( .   ; [  . . . . .K     m l.l.l.A     z =.*.*.*.*.&.*.*.*.*.*.*.*.=.+.O . % ",
"    + (  .| y           o   h  .} 2     y {  . . .( ;     f  .} 1   . R  . . . . .~ .   ; ]  . . . . .K     m l.l.l.A     z =.*.*.*.*.*.*.*.*.*.*.*.*.=.+.O   % ",
"    + (  . .J       o o   . U  .| i   ; /  . . . . .I . . L  .| a   ; )  . . . . .] :   u }  . . . . .K     m l.l.l.A     z =.*.*.*.*.*.*.*.*.*.*.*.*.*.+.O   % ",
"    + (  . .} W T Y U Y Y W |  . .] Y (  . . . . . .| W T }  . .] T (  . . . . . . .) Y ]  . . . . . .K     m l.l.l.9.    H *.*.*.*.*.*.*.*.*.*.*.*.*.=.+.O   % ",
"    + (  . . . . . . . . .@. . . . . . . . . . . . . . . . . . . . . . . . . . . . . . . . . . . . . .K     M j.l.l.j.8.! %.*.*.*.*.*.*.&.*.*.*.*.*.*.=.+.O   % ",
"    # )  . . . . . . . . . . . . . . . . . . . . . . . . . . . . . . . . . . . . . . . . . . . . . . .K     m l.l.l.l.h.-.*.*.*.*.*.*.*.*.*.*.*.*.*.*.=.+.O   % ",
"    . p h h h h h h h h h h h h h h h h h h h h h h h h h h h h h h h h h h h h h h h h h h h h h h h t     m l.l.l.l.h.-.*.*.*.*.*.*.*.*.*.*.*.*.*.*.=.+.O   % ",
"                                                                                                            m l.l.l.l.k.-.*.*.*.*.*.*.*.*.*.*.*.*.*.*.=.+.O   % ",
"> .     # o o # o o                                                                                         S l.l.l.j.8.! $.*.*.*.*.*.*.*.*.*.*.*.*.*.=.+.O   % ",
"p.;.S S ! ;.;.! ;.;.! ;.S S m     = A S S S S S S S S S S S S S S S S S S S S S S S S S S S S S S S S S S 5.f.l.l.l.9.    G =.*.*.*.&.*.*.*.*.*.*.*.*.*.+.O   % ",
"l.l.l.l.l.l.l.l.l.l.l.l.l.l.t.    q j.l.l.l.l.l.l.l.l.l.l.l.l.l.l.l.l.l.l.l.l.l.l.l.l.l.l.l.l.l.l.l.l.l.l.l.l.l.l.l.9.    G *.*.*.*.*.*.*.&.*.*.*.*.*.=.+.O   % ",
"l.l.l.l.l.l.l.l.l.l.l.l.l.l.t.  . c j.l.l.l.l.l.l.l.l.l.l.l.l.l.l.l.l.l.l.l.l.l.l.l.l.l.l.l.l.l.l.l.l.l.l.l.l.l.l.l.j.6.Q $.*.*.*.*.*.*.*.*.*.*.*.*.*.=.+.O   % ",
"l.l.l.l.l.l.l.l.l.l.l.l.l.l.t.    q j.l.l.l.l.l.l.l.l.l.l.l.l.l.l.l.l.l.l.l.l.l.l.l.l.l.l.l.l.l.l.l.l.l.l.l.l.l.l.l.l.k.-.*.*.*.*.*.*.*.*.*.*.*.*.*.*.=.+.O   % ",
"l.l.l.l.l.l.l.l.l.l.l.l.l.l.t.    q j.l.l.l.l.l.l.l.l.l.l.l.l.l.l.l.l.l.l.l.l.l.l.l.l.l.l.l.l.l.l.l.l.l.l.l.l.l.l.l.l.h.-.*.*.*.*.*.*.*.*.*.*.*.*.*.*.=.+.O   % ",
"l.l.l.l.l.l.l.l.l.l.l.l.l.l.t.    q j.l.l.l.l.l.l.l.l.l.l.l.l.l.l.l.l.l.l.l.l.l.l.l.l.l.l.l.l.l.l.l.l.l.l.l.l.l.l.l.l.k.-.*.*.*.*.*.*.*.*.*.*.*.*.*.*.=.+.O   % ",
"l.l.l.l.l.l.l.l.l.l.l.l.l.l.t.    q j.l.l.l.l.l.l.l.l.l.l.l.l.l.l.l.l.l.l.l.l.l.l.l.l.l.l.l.l.l.l.l.l.l.l.l.l.l.l.l.j.r...%.*.*.*.*.*.*.*.*.*.*.*.*.*.=.+.O   % ",
"l.l.l.l.l.l.l.l.l.l.l.l.l.l.t.    q j.l.l.l.l.l.l.j.f.l.l.l.l.l.l.l.l.l.l.l.l.l.l.l.l.l.l.l.l.l.l.l.l.l.l.l.l.l.l.l.9.    H =.*.*.*.*.*.*.*.*.*.*.*.*.=.+.O . % ",
"l.l.l.l.l.l.l.l.l.l.l.l.l.l.t.    q j.l.l.l.l.l.j.C 6 A d.l.l.l.l.l.l.l.l.l.l.l.l.l.l.l.l.l.l.l.l.l.l.l.l.l.l.l.l.l.A     z *.*.*.*.&.*.*.*.*.*.*.*.*.=.+.O   % ",
"l.l.l.l.l.l.l.l.l.l.l.l.l.l.t.    q j.l.l.l.l.l.a.o     6 7.g.l.l.l.l.l.l.l.l.l.l.l.l.l.l.l.l.l.l.l.l.l.l.l.l.l.l.l.A     z *.*.*.*.*.*.*.*.*.*.*.*.*.*.+.O   % ",
"l.l.l.l.l.l.l.l.l.l.l.l.l.l.t.    q j.l.l.l.l.l.a.o       . q y.j.l.l.l.l.l.l.l.l.l.l.l.l.l.l.l.l.l.l.l.l.l.l.l.l.l.A     z *.*.*.*.*.*.*.*.*.*.*.*.*.=.+.O   % ",
"l.l.l.l.f.u.u.u.u.u.u.u.u.p.S     7 y.u.u.u.u.u.7.o           o M a.l.l.l.l.l.l.l.l.l.l.l.l.l.l.l.l.l.l.l.l.l.l.l.l.A     z =.*.*.*.*.*.*.*.*.*.*.*.*.=.+.O   % ",
"l.l.l.g.b   o o o   o o o o o       o o o   o o       & c $       = S d.l.l.l.l.l.l.l.l.l.l.l.l.l.l.l.l.l.l.l.l.l.l.A     z =.*.*.*.*.*.&.*.*.*.*.*.*.=.+.O   % ",
"l.l.l.s.%                                             5 0.:.9         7 9.j.l.l.l.l.l.l.l.l.l.l.l.l.l.l.l.l.l.l.l.l.A     z *.*.*.*.*.*.*.*.*.*.*.*.*.=.+.O   % ",
"l.l.l.s.%     4 5 5 5 5 5 5 5 5 5 5 5 5 5 5 5 5 5 8 8 V w.e.w.B 5         b y.j.l.l.l.l.l.l.l.l.l.l.l.l.l.l.l.l.l.l.A     z *.*.*.*.*.*.*.*.*.*.*.*.*.=.+.O   % ",
"l.l.l.s.%   & ,.q.0.0.0.q.0.0.0.3.q.0.0.0.0.0.0.0.0.q.e.e.e.e.e.3.N &       o C s.l.l.l.l.l.l.l.l.l.l.l.l.l.l.l.l.l.A     z =.*.*.*.*.*.*.*.*.*.*.*.*.=.+.O   % ",
"l.l.l.s.%   * 2.e.e.e.e.e.e.e.e.i.e.e.e.e.i.w.i.e.e.e.e.e.e.e.w.e.e.>.v o       6 p.l.l.l.l.l.l.l.l.l.l.l.l.l.l.l.l.A     z =.*.*.&.*.*.*.*.*.*.*.*.*.*.+.O   % ",
"l.l.l.s.%   * 2.e.e.e.w.e.e.e.e.e.e.e.e.e.e.w.e.e.e.e.e.e.e.w.e.e.e.i.3.x         4.l.l.l.l.l.l.l.l.l.l.l.l.l.l.l.l.A     z *.*.*.*.*.*.*.*.*.*.*.*.*.=.+.O   % ",
"l.l.l.s.&   * 2.i.e.i.e.i.e.e.e.e.i.e.e.e.e.i.i.e.e.e.e.w.e.e.e.e.w.;.8 o       q s.l.l.l.l.l.l.l.l.l.l.l.l.l.l.l.l.A     z *.*.*.*.*.*.*.*.*.*.*.*.*.=.+.O   % ",
"l.l.l.s.%   & :.<.<.<.<.<.<.,.<.<.<.<.<.<.<.<.<.<.<.2.e.e.e.e.e.>.c o       6 5.g.l.l.l.l.l.l.l.l.l.l.l.l.l.l.l.l.l.A     z =.*.*.*.*.*.&.*.*.*.*.*.*.=.+.O   % ",
"l.l.l.s.%     $ & $ % $ $ $ % $ $ $ % $ $ % $ $ $ % * N e.e.1.N %       % Z s.l.l.l.l.l.l.l.l.l.l.l.l.l.l.l.l.l.l.l.A     z =.*.*.*.*.*.*.*.*.*.*.*.*.=.+.O . % ",
"l.l.l.s.%                                             4 2.B 4         n u.j.l.l.l.l.l.l.l.l.l.l.l.l.l.l.l.l.l.l.l.l.A     z *.*.*.*.*.*.*.*.*.*.*.*.*.*.+.O   % ",
"l.l.l.j.C = = = = = = = = = %     o = = = = = = %     # 8         0 r.j.l.l.l.l.l.l.l.l.l.l.l.l.l.l.l.l.l.l.l.l.l.l.A     z *.*.*.&.*.*.*.*.*.*.*.*.*.=.+.O   % ",
"l.l.l.l.j.d.d.d.d.d.d.d.d.f.7.    0 s.d.d.d.d.d.t.o           = 4.f.l.l.l.l.l.l.l.l.l.l.l.l.l.l.l.l.l.l.l.l.l.l.l.l.A     z =.*.*.*.*.*.*.*.*.*.*.*.*.=.+.O   % ",
"l.l.l.l.l.l.l.l.l.l.l.l.l.l.t.    b j.l.l.l.l.l.a.o       o C s.l.l.l.l.l.l.l.l.l.l.l.l.l.l.l.l.l.l.l.l.l.l.l.l.l.l.A     z =.*.*.*.*.*.*.*.*.*.*.*.*.=.+.O   % ",
"l.l.l.l.l.l.l.l.l.l.l.l.l.l.t.    q j.l.l.l.l.l.a.%     n y.j.l.l.l.l.l.l.l.l.l.l.l.l.l.l.l.l.l.l.l.l.l.l.l.l.l.l.l.A     z =.*.*.*.*.*.*.*.*.*.*.*.*.=.+.O   % ",
"l.l.l.l.l.l.l.l.l.l.l.l.l.l.t.    b j.l.l.l.l.l.j.4.n 9.j.l.l.l.l.l.l.l.l.l.l.l.l.l.l.l.l.l.l.l.l.l.l.l.l.l.l.l.l.l.A     z *.*.*.*.*.*.*.*.*.*.*.*.*.=.+.O   % ",
"l.l.l.l.l.l.l.l.l.l.l.l.l.l.t.    q j.l.l.l.l.l.l.l.j.l.l.l.l.l.l.l.l.l.l.l.l.l.l.l.l.l.l.l.l.l.l.l.l.l.l.l.l.l.l.l.A     z *.*.*.*.*.*.*.*.*.*.*.*.*.=.+.O   % ",
"l.l.l.l.l.l.l.l.l.l.l.l.l.l.t.    q j.l.l.l.l.l.l.l.l.l.l.l.l.l.l.l.l.l.l.l.l.l.l.l.l.l.l.l.l.l.l.l.l.l.l.l.l.l.l.l.A     z =.*.*.*.*.*.*.*.*.*.*.*.*.=.+.O   % ",
"l.l.l.l.l.l.l.l.l.l.l.l.l.l.t.    q j.l.l.l.l.l.l.l.l.l.l.l.l.l.l.l.l.l.l.l.l.l.l.l.l.l.l.l.l.l.l.l.l.l.l.l.l.l.l.l.A     z *.*.*.*.*.*.*.*.*.*.*.*.*.=.+.O . % ",
"l.l.l.l.l.l.l.l.l.l.l.l.l.l.t.    q j.l.l.l.l.l.l.l.l.l.l.l.l.l.l.l.l.l.l.l.l.l.l.l.l.l.l.l.l.l.l.l.l.l.l.l.l.l.l.l.A     z =.*.*.*.*.*.*.*.*.*.*.*.*.*.+.O   % ",
"l.l.l.l.l.l.l.l.l.l.l.l.l.l.t.    q j.l.l.l.l.l.l.l.l.l.l.l.l.l.l.l.l.l.l.l.l.l.l.l.l.l.l.l.l.l.l.l.l.l.l.l.l.l.l.l.A     z =.*.&.*.*.*.*.*.*.*.*.*.*.=.+.O   % ",
"l.l.l.l.l.l.l.l.l.l.l.l.l.l.t.    q g.j.j.j.j.j.j.j.j.j.j.j.j.j.j.j.j.j.j.j.j.j.j.j.j.j.j.j.j.j.j.j.j.j.j.j.j.j.j.j.Z     z =.*.*.*.*.*.*.*.*.*.*.*.*.=.+.O   % ",
"l.l.l.l.l.l.l.l.l.l.l.l.l.l.t.    # r c q q q q q q q q q q q q q q q q q q b q q x r c q q q q q q q q q q q q q q =     r X.@.&.=.=.*.*.*.*.*.*.*.*.=.+.O   % ",
"l.l.l.l.l.l.l.l.l.l.l.l.l.l.t.      o                                           .   o                                       . - r G X.#.&.*.=.*.*.*.*.=.+.O   % ",
"l.l.l.l.l.l.l.l.l.l.l.l.l.l.d.7                                                                                                     X > k G o.#.&.=.=.=.+.O   % ",
"l.l.l.l.l.l.l.l.l.l.l.l.l.l.l.d.t.t.t.t.t.t.t.t.t.t.t.t.t.t.t.t.t.t.t.t.t.t.t.t.t.t.t.t.t.t.t.t.t.t.t.t.t.t.t.t.t.t.t.t.5.M 7 o             X 3 l G o.$.+.O   % ",
"l.l.l.l.l.l.l.l.l.l.l.l.l.l.l.l.l.l.l.l.l.l.l.l.l.l.l.l.l.l.l.l.l.l.l.l.l.l.l.l.l.l.l.l.l.l.l.l.l.l.l.l.l.l.l.l.l.l.l.l.l.j.f.u.5.m 6 o             X 3 r X   % ",
"l.l.l.l.l.l.l.l.l.l.l.l.l.l.l.l.l.l.l.l.l.l.l.l.l.l.l.l.l.l.l.l.l.l.l.l.l.l.l.l.l.l.l.l.l.l.l.l.l.l.l.l.l.l.l.l.l.l.l.l.l.l.l.l.l.j.f.u.5.n 6 o               % ",
"l.l.l.l.l.l.l.l.l.l.l.l.l.l.l.l.l.l.l.l.l.l.l.l.l.l.l.l.l.l.l.l.l.l.l.l.l.l.l.l.l.l.l.l.l.l.l.l.l.l.l.l.l.l.l.l.l.l.l.l.l.l.l.l.l.l.l.l.l.j.f.u.4.m 6 o       % ",
"l.l.l.l.l.l.l.l.l.l.l.l.l.l.l.l.l.l.l.l.l.l.l.l.l.l.l.l.l.l.l.l.l.l.l.l.l.l.l.l.l.l.l.l.l.l.l.l.l.l.l.l.l.l.l.l.l.l.l.l.l.l.l.l.l.l.l.l.l.l.l.l.l.j.d.t.Z 0 = C "
};
