/* XPM */
static char *_bcc7ef053744469e7b596c124e4ac79YlzA3hkt31xG0mBp[] = {
/* columns rows colors chars-per-pixel */
"80 80 187 2 ",
"   c #7C0E00",
".  c #6F1500",
"X  c #6A1A05",
"o  c #6C1E09",
"O  c #751400",
"+  c #7C1200",
"@  c #771A01",
"#  c #7B1C04",
"$  c #771F09",
"%  c #7B1F08",
"&  c #6C210D",
"*  c #7B2107",
"=  c #77210A",
"-  c #6A2311",
";  c #712613",
":  c #712814",
">  c #850E00",
",  c #890E00",
"<  c #841300",
"1  c #8A1300",
"2  c #831C02",
"3  c #891800",
"4  c #991700",
"5  c #951B00",
"6  c #9B1C00",
"7  c #A01F00",
"8  c #822105",
"9  c #83220B",
"0  c #962304",
"q  c #9D2102",
"w  c #96270C",
"e  c #9B270B",
"r  c #96280E",
"t  c #9C2C0D",
"y  c #9E300F",
"u  c #962C14",
"i  c #9C2D13",
"p  c #943116",
"a  c #9E3015",
"s  c #94321A",
"d  c #9D3319",
"f  c #96381E",
"g  c #A12102",
"h  c #A1270F",
"j  c #A22A0D",
"k  c #AE2D0D",
"l  c #B52E06",
"z  c #B52D0B",
"x  c #BB2D0D",
"c  c #B53005",
"v  c #B6310C",
"b  c #BA320B",
"n  c #A22D13",
"m  c #AE2E14",
"M  c #B42F10",
"N  c #B92D11",
"B  c #A23114",
"V  c #A93115",
"C  c #A4331B",
"Z  c #A8361C",
"A  c #A8391E",
"S  c #B53414",
"D  c #BA3214",
"F  c #B43619",
"G  c #B83719",
"H  c #B63C1B",
"J  c #BB3C1D",
"K  c #993A22",
"L  c #B33D24",
"P  c #BD3D22",
"I  c #D93C0F",
"U  c #CD3E16",
"Y  c #C73E1E",
"T  c #CC3E1D",
"R  c #D63D13",
"E  c #DD3E16",
"W  c #D63719",
"Q  c #D63D1C",
"!  c #DD3E1A",
"~  c #E13E16",
"^  c #E13E1A",
"/  c #C23F24",
"(  c #D33F21",
")  c #DD3E21",
"_  c #E23D20",
"`  c #BC421D",
"'  c #B64125",
"]  c #BC4223",
"[  c #B74429",
"{  c #BA442A",
"}  c #C7461F",
"|  c #CC411D",
" . c #D74014",
".. c #DC4115",
"X. c #D5431D",
"o. c #DA4119",
"O. c #DC4018",
"+. c #DD4119",
"@. c #DF4018",
"#. c #DE4019",
"$. c #DF4019",
"%. c #DE4118",
"&. c #DC401A",
"*. c #DE401B",
"=. c #DD431A",
"-. c #DA401D",
";. c #DF431D",
":. c #DE421C",
">. c #DD431F",
",. c #DD411E",
"<. c #DC441F",
"1. c #DD411A",
"2. c #D6481E",
"3. c #DA491E",
"4. c #E14016",
"5. c #E14016",
"6. c #E2401A",
"7. c #E0401C",
"8. c #E3401D",
"9. c #E3401F",
"0. c #E4411E",
"q. c #E1411B",
"w. c #C24224",
"e. c #CD4222",
"r. c #CD4422",
"t. c #CD4424",
"y. c #CE4727",
"u. c #CD4524",
"i. c #C64822",
"p. c #CB4A23",
"a. c #CD4827",
"s. c #CB4824",
"d. c #C04428",
"f. c #CE4729",
"g. c #C94728",
"h. c #C54A2B",
"j. c #CB4929",
"k. c #CD4829",
"l. c #CC4C29",
"z. c #CB492A",
"x. c #D74120",
"c. c #D64123",
"v. c #D34723",
"b. c #D54723",
"n. c #D74722",
"m. c #D24625",
"M. c #D34726",
"N. c #D04727",
"B. c #D54624",
"V. c #D74725",
"C. c #D54626",
"Z. c #D44525",
"A. c #D44523",
"S. c #D94020",
"D. c #DF4120",
"F. c #DD4321",
"G. c #DE4222",
"H. c #DB4521",
"J. c #D84621",
"K. c #DB4522",
"L. c #DE4422",
"P. c #DD4424",
"I. c #DB4423",
"U. c #D24823",
"Y. c #D64822",
"T. c #D64824",
"R. c #D54924",
"E. c #DA4A23",
"W. c #D1472A",
"Q. c #D34629",
"!. c #DD4529",
"~. c #D44928",
"^. c #D64A29",
"/. c #D54A2A",
"(. c #D94D2C",
"). c #DA4C2A",
"_. c #C14930",
"`. c #D94E33",
"'. c #DB5031",
"]. c #E14320",
"[. c #E24220",
"{. c #E14121",
"}. c #E44122",
"|. c #E44024",
" X c #E24222",
".X c #E24920",
"XX c #E14829",
/* pixels */
"E E o.o.-.o.O.O.E ! F.| < t T.E E E E E E E E E E E E E E E E E o.o.E O.E x.f.5 5 k.) E O...o.o.O.O.O.O.O.O.O.O.O.O.O.O.O.O.O.O...U.i + | ;.! E E ..E o.o.o.O.E ",
"E E O.O.O.E ..E E ! ;.T < t n.E E E E E E E E E E E E E E E E E O.O.E ..^ -.N.5 5 N.Q ^ q.E O.O.O.E E E E E E E E E E E E E E E ! v.i < | ;.E ^ ~ ~ E E O.O.E E ",
"~ ~ ~ ~ ~ ~ ~ ~ ~ ^ 8.T 1 j H.~ ~ ~ ^ ~ ^ ^ ^ ^ ^ ^ ^ ^ ^ ~ ^ ~ ^ ^ ~ ~ ^ ! N.6 5 N.E ~ ~ ~ ~ O.E E E E E E E E E E E E E E E E E H.j < X.q.^ ~ ~ ~ ~ ~ ~ ^ ~ ~ ",
"~ ~ ~ ~ ~ ~ ~ ~ ^ ^ 8.T 1 j H.~ ~ ~ ^ ~ ^ ^ ^ ^ ^ ^ ^ ^ ^ ~ ^ ^ ^ ^ ~ ~ ^ ! N.6 5 N.! ^ ~ ~ ~ ^ ^ ~ ^ ~ ^ ~ ^ ~ ^ ^ ^ ^ ^ ^ ^ ^ E H.n < X.q.^ ^ ~ ~ ~ ~ ~ ^ ~ ~ ",
"~ ~ E E E E ^ ^ E ! F.T < i V.E ^ ^ ^ ^ ^ ^ ^ ^ ^ ^ ^ ^ ^ ^ ^ ^ ^ ^ E ^ ^ S.f.5 5 t.Q ^ ^ E ^ ^ ^ ^ ^ ^ ^ ^ ^ ^ ^ ^ ^ ^ ^ ^ ^ ^ E V.i < e.;.^ ^ ~ ~ ^ E E O.^ ^ ",
"~ E E E E E E E E ! F.T < i V.E E E E E E E E E E E E E E E E E E E E q.E x.a.5 5 a.X.E O.E E ^ ^ ^ ^ ^ ^ ^ ^ ^ ^ ^ ^ ^ ^ ^ ^ ^ E N.i < e.;.! E ~ ~ E E E O.^ ^ ",
"~ ~ E ..E E ~ ~ E E ;.| < t Y.E ................................E ~ E 4.E X.p.5 5 p.X.E 4.E ^ O.................................E n.i < | O.E ^ ~ ~ E E ....~ ~ ",
"~ E ......E E E E ! ;.| < t T.E ................................E E E ..E X.p.5 5 p.X.E ..E ^ O.O...............................E V.i < | O.E E ....E ......~ ~ ",
"E E ! O.O.E E E {.Q F.t.< i ^.E ^ ^ ^ ^ ^ ^ ^ ^ ^ ^ ^ ^ ^ ^ ^ ^ E {.E E E x.l.5 5 l.X.E E E {.! E ^ ^ ^ ^ ^ ^ ^ ^ ^ ^ ^ ^ ^ ^ E R (.i < r.<.W {.O.E E O.O.O.E E ",
"E E E O.! ! E E ) ) G.e.< i V.E ^ ^ ^ ^ ^ ^ ^ ^ ^ ^ ^ ^ ^ ^ ^ ^ ! ! E 8.! Q j.5 5 j.Q ! 8.E ! ! ^ ^ ^ ^ ^ ^ ^ ^ ^ ^ ^ ^ ^ ^ ^ ^ E V.i + e.L.) ! E E E ! O.O.E E ",
"^ E E E ! ! ^ ^ ! |.F.( 1 n x.^ ^ ^ ^ ^ ^ ^ ^ ^ ^ ^ ^ ^ ^ ^ ^ ^ _ ! E 8.^ Q W.5 5 N.Q ^ 0.E ! ! ! E E E E E E E E E E E E E E E ^ x.n < ( {.}.! ^ E E ! ! ! ^ ^ ",
"^ ^ O.O.! ^ ^ ^ ^ _ E X.1 V H.~ ^ O.O.O.O.O.O.O.O.O.O.O.O.O.O.E {.! ^ ^ ^ F.^.6 6 ^.;.~ ^ ^ E {.;.O.O.O.O.O.O.O.O.O.O.O.O.O.O.O.~ P.n 1 X.8.8.E ^ O.E ;.;.;.^ ^ ",
"E E E E E E E E ~ E E U < j X.E E E E E E E E E E E E E E E E E E E ..R E ;.r.4 4 r.O.E R ..E E E E E E E E E E E E E E E E E E ~ <.j > U ..E E E R E E ..E E E ",
"V.n.Y.U.T.Y.Y.Y.E.n.E.i.8 p ~.K.Y.n.n.n.n.n.n.n.n.n.n.n.n.n.n.T.v.U.E.2.H.^.h.0 0 h.T.H.2.E.U.v.T.n.n.n.n.n.n.n.n.n.n.n.n.n.n.H.K.^.d 2 p.^.n.n.2.2.U.U.U.U.T.n.",
"n i a a a a n n n n B p - : d B a a a a a a a a a a a a a a a a i a a t n B s = $ s i n t B a i a a a a a a a a a a a a a a a n n d : - s B B B i i i a d a i i ",
"    + + + + + +   <   O & X +   + + + + + + + + + O O O + + + + + + +   < + @ . O O   <   + + + + + + + O O + + + + + + + + +     + X o O   <   + + + + + +     ",
"D D D D D D D D D D D S F F S D D D S S D D D D G j   C G D D D S S S D D S S F S S D D D S S D D D D F Z   n J D D D D D D D D D S F F S D D D D D D D D D D D ",
"L.L.L.L.L.L.L.L.L.L.L.L.L.L.L.L.P.L.3.3.L.L.P.P.x.S 1 ] V.L.F.S.L.L.L.L.L.L.L.P.L.L.L.L.L.L.L.P.F.P.L.V.] 1 S V.I.P.P.L.3.3.L.P.L.L.L.L.L.L.L.H.L.H.H.L.P.L.L.H.",
"E E E E E E E E E E E E E E E E ! E  . .E E ! Q H.v > J H.O.O.;.! E E E E E E E E E E E E E E E ! E E x.J > z V.Q E ! !  . .! W E E E E E E E E E E E E E E E E ",
"~ O.^ O.^ O.^ O.^ O.^ O.^ O.^ O.E ........O.E o.3.l > J X...R E ^ ^ ^ ^ ^ ^ ^ ^ ^ ^ ^ ^ ^ ^ ^ ^ E E O.X.` < v ).o.O.O.O.....O.^ ^ ^ ^ ^ ^ ^ ^ ^ ^ ^ ^ ^ ^ ^ ^ ~ ",
"E E E ..E ..E ..E E E E E E E E E E ......E E o.3.c > ` Y.....q.E E E E E E E E E E E E E E E E O.E E X.` > z n.o.E E ........E E E E E E E E E ~ E E ~ ~ ~ E E ",
"E E O.O.........O.O.O.O.O.O.O.O.^ E ......O.! -.X.l > J 2...E q.O.^ ^ ^ ^ ^ ^ ^ ^ ^ ^ ^ ^ ^ ^ O.8.O.O.2.` 1 v I.! E E E ....E ^ ^ ^ ^ ^ ^ ^ ^ ^ ~ ~ ~ ~ ^ ^ ~ E ",
"E E E E E E E E E E E E E E E ^ ^ ^ ^ ..^ ^ ^ ) L.x , P S.E E ! ^ ^ ^ ^ ^ ^ ^ ^ ^ ^ ^ ^ ^ ^ ^ ^ ! ! ! X.J , N P.! ^ ^ ^ ~ ~ ^ ^ ^ ^ ^ ^ ^ ^ ^ ^ ^ ^ ^ ^ ^ ^ ^ E ",
"! ! ! ! ! ! ! ! E E E ! ! ! E E ^ ^ ^ ~ ^ ^ ^ ! F.x , P I.8.! ! E E E E E E E E E E E E E E E E ^ ^ ^ S.P , N G.) ^ _ ^ ~ ~ ^ ^ E E E ! ! ! E E ! ! ! ! ! ! ! E ",
"E O.E O.E O.E O.E O.E O.E O.E ! ^ ^ E ..O.^ ! ) S.b > J H.q.;.! ! O.O.O.O.O.O.O.O.O.O.O.O.O.O.O.! E q.x.] > D x.! ! ^ ! ....^ ^ ! O.O.O.O.O.O.O.O.! ! ! O.O.! ! ",
"E E E E E E E E E E E E E E E E E E E ..O.E E Q H.b > ] 2.R ! ;.O.O.O.O.O.O.O.O.O.O.O.O.O.O.O.O.O.E E X.] > D I.! ! ! E ....E E E O.O.O.O.O.O.O.E E E E O.O.! E ",
"^ ^ ^ ^ ^ ^ ^ ~ ^ ^ ^ ^ ~ ~ ~ ^ E E ......O.E -.3.l > H 2.....O.....O.O.O.O.....O.O.........O.O.O.E O.X.` > v E.o.O.E O.....E ^ E O.....O.O.O.O.O.O.O.O.O.O.O.O.",
"~ ~ ^ ^ ~ ~ ~ ^ ~ ~ ~ ~ ~ ~ ~ ^ E E ........E Q X.l 1 H n.q.O.! E E E E E E E E E E E E E E E E E E q.2.H < v H.! E E ......E E E E ~ E E E E E E E E E ~ E E E ",
"^ ^ ^ ^ ^ ^ ^ ^ ^ ^ ^ ^ ^ ^ ^ ^ _ ) O.o.E 8.) ) H.z 1 J S.E W ! ^ ^ ^ ^ ^ ^ ^ ^ ^ ^ ^ ^ ^ ^ ^ ^ ^ R E x.J 1 z c.! ! ! O.....^ ^ ^ ^ ^ ^ ^ ^ ^ ^ ^ ^ ^ ^ ^ ^ ^ ^ ",
"( x.x.x.x.x.x.x.x.x.x.x.x.x.x.c.c.x.x.X.x.x.c.c.'.k < L (.P.c.!.x.x.x.x.x.x.x.x.x.x.x.x.S.x.x.x.XXx.I./.' < m `.x.x.x.x.X.X.x.) c.x.x.S.x.x.x.x.S.x.x.x.S.S.x.x.",
"] ] ] ] ] ] ] ] ] ] ] ] ] ] ] ] w.] ] ] w.w./ P { i $ K { w.P P ] ] ] ] ] ] ] ] ] ] ] ] ] ] ] ] J J w.' K @ i [ ] w.w.w.` ` w.w.] ] ] ] ] ] ] ] ] ] ] ] ] ] ] ] ",
"< < < < < < < < < < < < + + < < 1 < < < 1 1 , 1 < 2 O # < 1 1 1 < < < < 1 < < < < < < 1 < < < 1 1 1 1 < # O 2 < < 1 1 1 1 1 1 1 1 < + + < < < < < < < < < < < < ",
"q q q q q q g g g g 6 e O 9 e 5 g g g g g g g g q q q q q 7 7 7 q q q g 7 q i + + i 6 7 g q q g g g g g q q q q g g g g g g g g 6 e * O e 6 g g g q 6 q q q g 7 ",
"v.v.v.N.N.N.v.N.Z./.W.] 9 s g.).N.N.N.N.N.N.N.N.N.N.N.N.N.N.N.N.f.t.U.v.c.t._.w w h.t.x.v.U.t.t.N.N.N.N.N.N.N.N.N.N.N.N.N.N.N.N.E.p.s 9 d.W.Q.N.n.v.N.W.N.N.N.N.",
"! -.X.X.-.-.-.-.Q S.S./ < r e.;.-.S.-.-.-.-.-.-.-.-.-.-.-.-.-.X.x.X.-.o.F.S.g.5 5 g.I.! ! <.-.Q -.-.-.-.-.-.-.-.S.-.-.-.-.-.-.-.o.v.r < Y S.S.S.-.-.S.S.X.-.-.-.",
"^ E O.o.O.O.E E 8.W ! | 3 n n.E E E E E E E E E E E E E E E E E ! O.O.E ^ L.W.6 5 U.L.E E O.;.! E E E E E E E E E E E E E E E E E n.B 1 | ;.E 8.E ..E ! o.O.E E ",
"E E ............O.E O.| < t n...........O.O.O.O.................O.O...I E X.p.5 5 u.X.E R ..O.O.....O.O.........O.O...............E.t < | q.E O.....E O.......E ",
"~ E O.o.O.O.....q.E <.| < t Y...O.O.O.O.O.O.O.O.O.O.O.O.O.O.O.O.O.q.q.E E X.p.5 q u.X.O.4...O.q.O.O.O.O.O.O.O.O.O.O.O.O.O.O.O.....n.e < r..XE O.......O.o...O.~ ",
"~ E E E E E E E E E ;.T 1 i n.E E E E E ~ ~ E E E E E E E E E E E E ~ ~ ^ S.u.5 5 u.-.^ ~ ~ ! ! E E E E ^ ^ ~ E ^ ^ E E E E E E E n.i 1 | ;.W ^ E E ! E E E ~ ~ ",
"^ ^ ^ E ^ ^ ^ ^ ^ _ {.T < i I.q.^ ^ ^ ^ ^ ^ ^ ^ ^ ^ ^ ^ ^ ^ ^ ^ ^ ^ ~ ~ ^ F.t.5 5 t.F.^ ~ ^ 0.^ ^ ^ ^ ^ ^ ^ ^ ^ ^ ^ ^ ^ ^ ^ ^ ^ q.H.t < T 8.! ^ ^ ^ ^ ^ E ^ ^ ^ ",
"^ ^ ^ E ^ ^ ^ ^ ^ ! ].e.< i ).^ ^ ^ ^ ^ ^ ^ ^ ^ ^ ^ ^ ^ ^ ^ ^ ^ ^ ^ ^ E ^ G.t.5 5 u.F.^ ~ ^ ^ ^ ^ ^ ^ ^ ^ ^ ^ ^ ^ ^ ^ ^ ^ ^ ^ ^ 6.H.e < T 8.! ^ ^ ^ ^ ^ E ^ ^ ~ ",
"~ ~ E E E E E E ! E ;.T 3 n n.E ^ ^ ^ ^ ^ ^ ^ ^ ^ ^ ^ ^ ^ ^ ^ ^ E E E ~ ^ S.u.5 5 u.S.^ E ~ E ! ^ ^ ^ ^ ^ ^ ^ ^ ^ ^ ^ ^ ^ ^ ^ ^ R n.i < | O.W ^ E E E E E E ~ ~ ",
"~ O.O.o.O.O.....E q.=.T 3 t X...O.O.O.O.O.O.O.O.O.O.O.O.O.O.O.O.8.O.E 4.q.X.} q 5 p.-.E E 4.q...O.O.O.O.O.O.O.O.O.O.O.O.O.O.O...R Y.e < | q.E O.....O.O.O...O.~ ",
"E E ....E E E E E E O.T < t 2.....E E E E E E E E E E E E E E E 8.O...E E X.} 5 5 u.-.E R ..O.O.E E E E E E E E E E E E E E E ..R E.t + | <.E O.E E E E ....E E ",
"~ E E o.O.E E E 8.W ;.e.1 n E.E E E E E E E E E E E E E E E E E ! O.O.E ^ L.N.5 5 t.L.^ E O.O.O.E E E E E E E E E E E E E E E E E n.B 1 | ;.E 8.E E E ! o.O.E E ",
"! -.X.X.-.-.-.-.F.Q P.t.+ w N.o.-.-.-.-.-.-.-.-.-.-.-.-.-.-.-.-.Q X.-.! ;.I.u.5 5 g.c.;.-.o.X.X.-.-.-.-.-.-.-.-.-.-.-.-.-.-.-.-.O.v.r < T H.S.) -.-.S.x.X.-.-.-.",
"v.v.r.N.N.N.v.v.Z.Q.W.d.9 s j.E.N.N.N.N.N.N.N.N.N.N.N.N.N.N.N.N.t.r.v.v.V.t._.w w h.t.c.v.U.t.t.W.N.N.N.N.N.N.N.N.N.N.N.N.N.N.v.E.p.s 9 d.W.Q.Z.n.v.N.W.N.N.N.N.",
"6 6 q q q q q 6 6 g 5 0 O 9 q 6 7 7 q q 7 7 7 g q q q q q 7 7 q g 5 q g g 6 i + + i q 7 g q q q q g 7 q q q q q 6 7 7 7 q 7 g 7 6 e 9 O e 5 6 g 7 6 6 q q q 6 6 ",
"< < < < < < < < < < < < + + < < < < < < < , , > < + $ @ < 1 1 1 < < < < < < < < < < < < < < < < 1 1 , < @ $ + < > > , < < < , , 1 < + + < < < < < < < < < < < < ",
"] ] ] ] ] ] ] ] ] ] ] ] ] ] ] ] P P ` ` ] / / P { t % K { w.P P ] ] ] ] ] ] ] ] ] ] ] ] ] ] ] ] P J w.{ f * u { ] w./ w.] ] w./ ] ] ] ] ] ] ] ] ] ] ] ] ] ] ] ] ",
"S.S.S.c.c.c.S.S.c.S.S.S.S.S.S.c.c.I.n.2.H.H.!.c.(.k < L (.P.c.!.c.S.c.S.c.S.c.S.c.S.c.S.c.S.c.S.P.S.I.(.L < m `.Z.x.c.c.2.2.c.c.c.S.S.S.S.S.S.c.S.S.S.S.S.S.S.S.",
"! ! ! ^ ^ ^ ^ ! ^ ^ ! ! ! ! ! E ! E E ..E E ! Q X.x , J x.E ! W ! ^ ! ! ! ! ! ! ^ ^ ! ! ! ! ! ! ! R R x.J > N c.) ! ) ;.O.O.! ^ ^ ! ! ! ! ! ! ^ ^ ^ ^ ^ ^ ^ ^ ^ ",
"^ ^ q.q.q.q.q.q.q.^ ^ ^ ^ ^ ^ q.^ O.......O.;.-.2.b > ` 2.q.O.! q.q.q.q.q.q.q.q.^ q.q.q.q.q.q.q.E O.q.H.` > D n.! E E ! ....E E q.^ ^ ^ ^ ^ ^ q.E E E E ~ E E E ",
"E E E E E E E E E E E E E E E E E E ......E ! Q 3.v > ` 2.....O.E E E E E E E E E E E E E E E E O.E E 2.` > v n.o.O.;.o.....O.O.E E E E E E E E O.O.O.O.O.O.q.q.",
"O...O.O.O.O.O.O.O.O.O.O.O.O.O.O.E O.......O.;.-.H.l 1 ` 2.R R -.O.O.O.O.O.O.O.O.O.O.O.O.O.O.O.O.q.R E n.J 1 z I.o.! E O.....E ! O.O.O.O.O.O.O.O.E ! ! ! E E E E ",
"E E E E O.O.E E E E O.O.O.O.E E E ^ ....E ^ ! Q S.l 1 H n.q.;.! ! E E E E E E E E E E E E E E E E E  XI.G 1 z I.-.! ! ;.O.O.^ ^ E ! O.O.O.O.! ! O.O.O.O.O.O.O.O.",
"E E E E E E E E E E E E E E E ^ ^ ^ ^ ~ ^ ^ _ ! F.x , P H.8.! ! ! E E E E E E E E E E E E E E E ^ ^ ^ S.J , x !.) ^ _ ^ E E ^ ^ ^ ! ! ! ! ! ! ! ! ! ! ! ! ! ! E ",
"E E ^ ^ ^ ^ ^ ^ ^ ^ ^ ^ ^ ^ ^ ^ ^ ^ ~ E ^ ^ ^ ! F.x , P S.E W E ^ ^ ^ ^ ^ ^ ^ ^ ^ E ^ ^ ^ ^ ^ ^ ! ! ! S.J , x I.! ^ ^ ^ E E ^ ^ ^ E ^ ^ ^ ^ ^ ^ ^ ^ ^ ^ ^ ^ ^ E ",
"E E ~ ~ ~ ~ ~ ~ ~ ~ ~ ~ ^ ^ ~ ~ ^ E ......O.! ! X.v , ] H.O.O.8.E ~ ~ ~ ^ ^ ~ ~ ~ ~ ~ ~ ~ ^ ^ ^ q.O.O.2.` 1 z I.! ! ! O.....E ^ ^ ~ ~ ~ ~ ^ ^ ~ ~ ~ ^ ^ ^ ^ ~ E ",
"E E E ~ ~ ~ ~ E ~ ~ ~ ~ ^ ~ ~ ~ E E ........E o.X.l > J 2...E O.E ~ ~ ~ ~ ~ ~ ~ ~ ~ ~ ~ ~ ~ ~ E E ....X.` > z n.X.E ! o.....E E ~ ~ ~ ~ ~ ~ ~ ~ ~ E E ~ ~ ~ E E ",
"^ ^ ^ ^ q.^ q.q.^ ^ ^ ^ ^ ^ ^ ^ O.O.......O.;.-.K.v > ] n...E O.O.q.^ ^ ^ ^ ^ ^ ^ ^ q.^ ^ ^ ^ ^ E O.O.X.` 1 D ).-.;.;.O.....O.^ ^ ^ q.^ ^ ^ ^ ^ ^ ^ ^ ^ q.q.^ ~ ",
"E ! ! ! ! ! ! ! E E E E E E E E ! E R R E E ! Q 2.l > J n.O.Q ! E E E E E E E E E E E E E E E E E O.E X.J > M V.Q ! ! !  . .! W E E E E E E E E E E E E E E E E ",
"I.I.I.I.I.I.I.I.I.I.I.I.I.I.I.P.P.P.H.3.L.L.!.P.n.D 1 { ^.L.G.F.P.H.I.H.I.H.I.H.I.H.I.H.I.H.P.L.L.L.F.N.{ 1 S Q.I.P.!.P.<.<. X XP.H.H.H.H.n.H.H.H.H.H.H.H.H.H.H.",
"D D S S S D D D D D S S F F S D D D D D D D D D G j   C G D D D D S D D D D S S S S D D D D S D D D D F A   h J D D D D D D D D D S F F S D D D D D S S S S D D ",
"  + + + + + + +   <   O & X @     + + + + +     + + O O + + + + + + +   <   O O . O   <   + + + + + + + O O + +         + +     > + X o O   +   + + + + + + +   ",
"n i a a a a B B n n n p - : d n n a a B a a a a a a a a a a a a i i a i n i s = $ s i n i B a i a a a a a a a a a a a a a a a n n d ; & p B n n a y i a d a i n ",
"V.V.T.T.^.T.E.V.!.V.).g.9 s W.K.H.n.n.n.n.n.n.n.n.n.n.n.n.n.n.T.N.N.^.n.I.^.h.0 0 h./.I.n.).W.N.T.n.n.n.n.n.n.n.n.n.n.n.n.n.n.H.H.^.i 2 j.E.V.).T.Y.T.^.W.^.V.V.",
"E E E ! E E E E E ! ! T > t X.E E E E E E E E E E E E E E E E E E ! E E E ;.r.4 4 r.;.E E O.! E E E E E E E E E E E E E E E E E ~ F.j > T E E q.E E E ! ! ! E ! ",
"^ ^ O.O.O.^ 4.~ E 6.O.X.1 V X.4.O.O.O.O.O.O.O.O.O.O.O.O.O.O.O.O.8.E ~ 6.~ ;.T.6 6 T.O.E 4.4.E 8.O.O.O.O.O.O.O.O.O.O.O.O.O.O.O.O.~ F.V 1 X.E q.^ 4...O.O.O.O.^ ^ ",
"~ E E E E E ~ ~ E 0.;.| 1 n X.4.E E E E E E E E E E E E E E E E 8.E E 0.^ ! N.5 5 v.Q ~ q.E E E E E E E E E E E E E E E E E E E ^ x.n < T ;.0.E ~ E E E E ..~ ~ ",
"! ! ! ! ! ! E E ) ) F.e.< i n.E ^ ^ ^ ^ ^ ^ ^ ^ ^ ^ ^ ^ ^ ^ ^ ^ ! ! W 8.! Q j.5 5 j.Q ! 8.E ) ! ^ ^ ^ ^ ^ ^ ^ ^ ^ ^ ^ ^ ^ ^ ^ ^ ! Q.u < t.P.) ! E E E ! ! ! ^ ^ ",
"^ ! ! ;.F.) ! !  XQ S.e.< i ^.R E ^ ^ ^ ^ ^ ^ ^ ^ ^ ^ ^ ^ ^ ^ E ! {.W E ! x.l.5 5 k.x.! E ! {.! E ^ ^ ^ ^ ^ ^ ^ ^ ^ ^ ^ ^ ^ ^ E W /.u < t.F.W F.E E ! ! ;.;.^ ^ ",
"^ E E E E E E E E ! F.| < i T.E ................................E E E O.E X.a.5 5 a.X.E O.E ^ E ................................E V.i < | L.E E E E E E E O.^ ~ ",
"~ ~ E ..E E ~ ~ E E O.| < t Y.E ................................E ^ E 4.E X.a.5 5 a.X.E 4.E ^ O.O...............................E T.i < | q.E ^ ~ ~ E E ....~ ~ ",
"~ E ............E E <.| < t Y.E ^ ^ ^ ^ ^ ^ ^ ^ ^ ^ ^ ^ ^ ^ ^ ^ ^ E E ..E X.a.5 5 p.X.E ..E E ^ ^ ^ ^ ^ ^ ^ ^ ^ ^ ^ ^ ^ ^ ^ ^ ^ E T.i < | <.E ^ ~ ~ E E ....~ ~ ",
"~ ~ E ..E E ~ ~ ^ E ;.T < t n.E ^ ^ ^ ^ ^ ^ ^ ^ ^ ^ ^ ^ ^ ^ ^ ^ ^ ~ E 4.^ -.a.5 5 a.Q ^ 4.E ~ ^ ^ ^ ^ ^ ^ ^ ^ ^ ^ ^ ^ ^ ^ ^ ^ ^ E T.i < | q.E ^ ~ ~ E E E O.~ ~ ",
"~ ~ ^ ^ ^ ^ ^ ^ ^ ^ {.T 1 n I.~ ^ ~ ^ ~ ^ ^ ^ ^ ^ ~ ^ ~ ^ ~ ^ ^ ^ ^ ~ ^ ^ ) W.6 5 W.! ^ ^ ~ ^ ^ ^ ~ ^ ~ ^ ^ ^ ~ ^ ~ ^ ~ ^ ^ ^ ^ E I.n < T {.^ ^ ~ ~ ^ ^ ^ ^ ^ ^ ",
"~ ~ ^ ^ ^ ^ ^ ^ ^ ^ {.T 1 n I.~ ^ E E E E E E E E E E E E E E E E ^ ~ ^ ^ ) W.6 6 W.! ^ ^ ^ ^ E E E E E E E E E E E E E E E E E E I.n < T {.^ ^ ^ ~ ^ ^ ^ ^ ^ ^ ",
"E E ....O.E ..E E ! ;.T < i V.E E E E E E E E E E E E E E E E O.O...E q.^ -.N.5 5 N.Q ^ O.E ..O.O.E E E E E E E E E E E E E E E E Y.t < | q.E ^ ~ ~ E E O.O.E E ",
"E ......o.......E ! ;.| < t T.E O.O.O.O.O.O.O.O.O.O.O.O.O.O.O.o.o...E ..E -.t.5 5 a.Q E ......o.O.O.O.O.O.O.O.O.O.O.O.O.O.O.O.O.E U.t < | <.E O.E ..E o...o.O.E "
};
