/* XPM */
static char *result[] = {
/* columns rows colors chars-per-pixel */
"80 80 130 2 ",
"   c #5C3F2E",
".  c #6C3E25",
"X  c #623D2C",
"o  c #6A3F2C",
"O  c #633E31",
"+  c #7D431C",
"@  c #5F4436",
"#  c #5B433D",
"$  c #694027",
"%  c #664029",
"&  c #6C4129",
"*  c #754425",
"=  c #614437",
"-  c #62463D",
";  c #6C463A",
":  c #774E33",
">  c #794E32",
",  c #764F38",
"<  c #775031",
"1  c #7D5135",
"2  c #76503A",
"3  c #7D563F",
"4  c #694743",
"5  c #6D5046",
"6  c #6E514A",
"7  c #705143",
"8  c #7E5543",
"9  c #76584F",
"0  c #7F5C4E",
"q  c #755E5A",
"w  c #795D5C",
"e  c #7F6357",
"r  c #7F645F",
"t  c #7B5D60",
"y  c #7C6364",
"u  c #864B1D",
"i  c #8E4F1B",
"p  c #964E16",
"a  c #994F16",
"s  c #944E19",
"d  c #994D18",
"f  c #8C511F",
"g  c #9E5515",
"h  c #96531B",
"j  c #9B541B",
"k  c #A55415",
"l  c #A85517",
"z  c #A75813",
"x  c #AA5814",
"c  c #A5541A",
"v  c #A85518",
"b  c #AF5B19",
"n  c #B45C14",
"m  c #BE5F12",
"M  c #B25B1A",
"N  c #BE6112",
"B  c #804623",
"V  c #844D25",
"C  c #8E4E20",
"Z  c #854E28",
"A  c #924D22",
"S  c #8C5122",
"D  c #855028",
"F  c #935023",
"G  c #815136",
"H  c #805239",
"J  c #DF6E07",
"K  c #D1660D",
"L  c #D1690E",
"P  c #C06112",
"I  c #E06F08",
"U  c #E97207",
"Y  c #E2700A",
"T  c #EA7208",
"R  c #F27606",
"E  c #F87704",
"W  c #F67804",
"Q  c #FF7B01",
"!  c #F67909",
"~  c #FF7E08",
"^  c #805543",
"/  c #815C4C",
"(  c #86655A",
")  c #88645B",
"_  c #85685F",
"`  c #846661",
"'  c #846962",
"]  c #8D6F66",
"[  c #846B6C",
"{  c #8C6E6B",
"}  c #916E66",
"|  c #906D6B",
" . c #8D716C",
".. c #91726E",
"X. c #8F7270",
"o. c #927272",
"O. c #967973",
"+. c #9A7B76",
"@. c #977B78",
"#. c #9C7C79",
"$. c #A17F75",
"%. c #FF8001",
"&. c #9E817A",
"*. c #A4847C",
"=. c #A8857D",
"-. c #A9887F",
";. c #A58480",
":. c #A88581",
">. c #AB8C86",
",. c #AB8C88",
"<. c #B28E84",
"1. c #B28F8A",
"2. c #B59285",
"3. c #B99386",
"4. c #B3918C",
"5. c #BD968B",
"6. c #BB998D",
"7. c #B79792",
"8. c #B99792",
"9. c #BA9891",
"0. c #C0978E",
"q. c #C39B8D",
"w. c #C39C93",
"e. c #C89F94",
"r. c #C6A094",
"t. c #CBA295",
"y. c #D2A596",
"u. c #D7AB97",
"i. c #D2A69B",
"p. c #D3A999",
/* pixels */
"q.#.#.#.#.#.#.+.+.#.#.#.+.+.#.#.#.#.#.+.+.#.#.+.+.;.i.<.@.#.#.+.@.#.@.#.#.@.#.@.@.#.#.#.@.#.#.#.+.@.#.#.0.i.$.#.#.#.@.+.#.#.#.#.#.#.#.#.#.#.@.#.#.#.#.#.#.#.;.i.",
"X.o A A A A A A A A A A A A A A A A A A A A A A A # 0.6 B A f A s S C C S s C F C i C C i F S f i C s * ` ,.  A A A A A A A A A A A A A A A A A A A A A A A O :.",
" .b Q Q Q Q Q Q E Q Q Q Q Q E E Q Q Q Q E Q Q Q E > 9.^ U Q Q Q Q %.Q %.%.%.Q Q Q Q Q Q Q Q %.Q %.Q Q L _ ,.D %.~ ~ ~ ~ ~ ~ E ~ ~ ~ ~ ~ ~ ~ ~ ~ ~ ~ E ~ ~ ~ A :.",
"{ n Q Q Q Q Q Q E E E Q Q Q E E Q E Q E E E E Q E > 9.^ U Q Q Q Q Q Q Q Q Q Q Q Q Q Q Q Q Q Q Q Q Q Q L _ ,.S Q ~ ~ Q ~ ~ ~ E ~ E ~ Q Q ~ Q ~ Q E ~ ~ E ~ ~ A ;.",
"{ x Q Q Q Q Q Q Q Q E Q Q Q Q Q E Q Q Q Q Q Q Q E > 9.8 U Q Q Q Q Q Q Q Q Q Q Q Q Q E Q Q Q Q Q Q Q Q K ) ,.S Q Q Q Q Q Q Q Q Q Q E Q Q Q Q Q Q Q Q Q Q Q ~ A :.",
"{ n Q Q Q Q Q Q Q Q Q Q Q E Q Q Q Q Q Q Q Q Q Q E > 8.8 U Q Q Q Q Q Q Q Q Q Q Q Q Q Q Q Q Q Q Q Q Q Q K ) ,.S Q Q Q Q Q E Q Q Q Q Q Q Q Q E Q Q Q Q E Q Q Q A :.",
"{ n Q Q Q Q Q Q Q E Q Q Q Q Q E Q Q Q Q E Q Q Q E > 9.^ U Q Q Q Q Q Q Q Q Q Q Q Q Q Q Q Q Q Q Q Q Q Q K ) ,.C Q Q Q Q E Q Q Q Q Q Q Q Q Q Q Q Q Q Q Q Q Q ~ A $.",
"{ x Q Q Q Q Q Q Q Q Q E Q Q Q Q Q Q E Q Q Q Q Q W > 9.^ U Q Q Q Q E Q Q Q Q Q Q Q Q Q Q Q Q Q Q Q Q Q K ) >.C Q Q Q Q Q Q E Q Q Q Q E Q Q Q Q Q Q E Q Q Q Q A ;.",
"] b Q Q Q Q Q Q Q Q Q Q Q Q Q Q Q Q Q Q Q Q Q Q W > 9.^ U Q Q Q Q Q Q E Q Q Q Q Q Q Q Q Q Q Q Q Q Q Q K _ ,.C Q Q Q Q E Q Q Q Q Q Q Q Q E Q E Q Q Q Q Q Q ~ C :.",
"{ n Q Q Q Q Q Q Q Q Q Q Q E Q Q Q Q Q Q Q Q Q Q W > 9.8 U Q Q Q Q Q Q Q Q Q Q Q Q Q Q Q Q Q Q Q Q Q Q K ) ,.S Q Q Q Q Q Q Q Q E E Q Q Q Q Q Q Q Q Q Q Q Q Q A =.",
"{ x Q Q Q Q Q Q E Q Q E Q Q Q E Q E Q Q Q Q Q Q W < 9.^ U Q Q Q Q Q Q Q Q Q Q Q Q Q Q Q Q E Q Q Q Q Q K ) >.S ~ Q E Q Q Q E Q Q Q Q Q Q Q E Q Q Q Q Q Q Q Q A =.",
"{ n Q Q Q Q Q Q Q Q Q Q E Q Q Q Q Q Q Q Q Q Q Q W < 9.8 U Q Q Q Q E Q Q Q Q Q Q Q Q Q Q Q Q Q Q Q Q Q K ) >.C Q E Q Q Q Q Q Q Q Q Q Q Q Q Q Q Q Q Q Q Q Q Q A ;.",
"{ n Q Q Q Q Q Q Q Q Q Q Q Q Q Q %.Q Q Q Q Q Q Q W < 9.^ Y Q Q Q Q Q Q Q Q Q Q E Q Q Q Q Q Q Q Q Q Q Q K ( >.C ~ Q ~ Q Q E Q Q E Q Q Q Q Q E Q Q Q Q E Q Q ~ A *.",
"{ x %.Q Q %.Q Q Q Q Q Q Q Q Q Q %.%.Q Q Q Q Q %.E < 9.^ T Q Q %.Q Q Q Q Q Q %.Q Q Q Q Q Q Q Q Q Q Q Q K ( >.S Q ~ Q ~ ~ Q Q ~ Q ~ Q ~ Q Q Q ~ ~ Q Q Q ~ Q ~ F :.",
" .+ n n n n n n n n n n n n n n n n n n n n n n b @ 9.7 z N n n n n n n N n n N n n n n N n n N n n n a ( >.& M n n n n n M n n M n n n n n n n n n M n n n & :.",
"2._ _ _ _ _ _ _ _ _ _ _ _ ` _ _ ' _ _ ' _ _ ' ' ' X.p.*._ ' ' ' ` ` _ ' ' ' _ r ( ` ' _ ' _ _ _ _ ' ` _ >.t. .` ` ` ' ' ' ` ` ` ` ` ` [ ' ' [ ' ' ' ' ` ' '  .r.",
" ... . . . .o. .{  ...{ >.y.@.| .... ..... .........} | .... .....o. . .....O.r.5...........| ....| o.|  .| o.....| ......o. ...| *.i.*.{ X.X.o.X.o.X.X.o.X.X. .",
"v v c v v v v v v v v s 9 4.X c c v c c v v c v v c c v v c v v v v v c v v $ ;.] + v x v v v x x x v v l x x c v v l l v x v v h 4 9.; j v v x v v v v l l v v ",
"Q %.Q %.Q %.Q Q Q Q Q I / 4.D ~ Q Q Q Q Q Q Q Q Q Q Q Q Q Q Q Q Q Q Q Q Q Q c ;.] N %.%.Q Q Q Q %.Q Q %.Q Q Q Q Q %.%.Q %.%.Q Q R , 7.H W Q Q %.Q %.Q %.Q Q Q Q ",
"Q Q Q Q Q Q Q Q Q Q Q I / 4.D Q Q Q Q Q Q Q Q Q E Q E Q Q E Q Q Q Q Q Q Q Q j =.] m %.Q Q Q Q Q Q Q Q Q Q Q Q Q Q Q Q Q Q Q Q Q R , 8.H W Q Q Q Q Q Q Q Q Q Q Q ",
"Q Q Q Q Q Q Q Q Q Q Q I 0 ,.D Q Q Q Q Q Q Q Q Q E Q Q Q Q Q Q Q Q Q Q Q Q Q c =.] m Q Q Q Q Q Q Q Q Q Q Q Q Q Q Q Q Q Q Q Q Q Q R , 8.H ! Q Q Q Q Q Q Q Q Q Q Q ",
"Q Q Q Q Q Q Q Q Q Q Q I 0 7.D E Q Q Q Q Q E Q Q Q Q Q Q Q Q Q Q Q Q Q Q Q Q j :.} m Q Q Q Q Q Q Q Q Q Q Q Q Q Q Q Q Q Q Q Q Q Q R 2 8.1 U Q Q Q Q Q Q Q Q Q Q Q ",
"Q Q Q Q Q Q Q Q Q Q Q I / 4.Z ~ Q Q Q Q Q Q Q Q Q Q Q Q E Q Q Q Q Q E Q Q Q c =.} P %.Q Q Q Q Q Q Q Q Q Q Q Q Q Q Q Q Q Q Q Q Q R < 6.3 W Q Q Q Q Q Q Q Q Q Q Q ",
"Q Q Q Q Q Q Q Q Q Q Q I 0 4.D Q Q Q Q Q Q Q Q Q Q Q E Q Q Q Q Q Q Q Q Q E Q c =.} N Q Q Q Q Q Q Q Q Q Q Q Q Q Q Q Q Q Q Q Q Q Q T , 8.1 W Q Q Q Q Q Q Q Q Q Q Q ",
"Q Q Q Q Q Q Q Q Q Q Q I 0 1.Z E Q Q Q Q Q Q Q Q Q Q Q Q Q Q Q Q Q Q Q Q Q Q c *.} N Q Q Q Q Q Q Q Q Q Q Q Q Q Q Q E Q E Q Q Q Q R , 9.H ! Q Q Q Q Q Q Q Q Q Q Q ",
"Q Q E Q Q Q Q Q Q Q Q I 0 7.Z Q Q Q Q E Q Q Q Q Q Q Q E Q Q Q Q Q Q Q Q Q Q c *.} P Q Q Q Q Q Q Q Q Q Q Q Q Q Q Q Q Q Q Q Q Q E R 2 8.1 R Q Q Q Q Q Q Q Q Q Q Q ",
"Q Q Q Q Q Q Q Q Q Q Q I 0 ,.D Q Q Q Q Q Q Q Q Q Q Q Q Q Q Q Q Q Q Q Q Q Q Q j :.] N Q Q Q Q Q Q Q Q Q Q Q Q Q Q Q Q Q Q Q Q Q Q R < 8.H R Q Q Q Q Q Q Q Q Q Q Q ",
"Q Q Q Q Q Q Q Q Q Q Q I 0 4.Z Q E Q Q Q Q Q Q Q Q Q Q Q Q Q Q Q Q Q Q Q Q Q j :. .N Q Q Q Q Q Q Q Q Q Q Q Q Q Q Q Q Q Q Q Q Q Q T : 8.H R Q Q Q Q Q Q Q Q E Q Q ",
"Q Q Q Q Q Q Q Q Q Q Q Y 0 4.D Q Q Q Q Q Q Q Q Q Q Q Q Q Q Q Q Q Q Q Q Q Q Q j :.] N Q Q Q Q Q Q Q Q Q Q Q Q Q Q Q Q Q Q Q Q Q Q T 2 9.H ! Q Q Q Q Q Q Q Q Q Q Q ",
"Q Q Q Q Q Q %.%.Q Q Q Y 0 4.D Q Q Q Q Q ~ Q Q Q Q Q Q Q Q Q Q Q Q Q Q %.Q %.c :.] N %.Q Q Q Q %.Q Q Q Q Q Q Q Q Q %.Q %.Q Q Q Q ! < 8.H ! Q Q Q Q Q Q Q Q Q Q Q ",
"h h h j F h h h h h h u 9 4.= h d h j g h a j j d h j j F j j j j j j h j j % :. .* j j j h h j h h h j h h j h j h h h j h h h f - 9.4 h g g h h j j h p g j j ",
"O.@.@.@.@.@.@.@.@.@.@.@.2.y.$.O.+.+.+.+.@.@.+.+.@.+.O.O.+.+.@.@.@.@.O.@.@.O.#.t.q.@.@.#.@.@.+.+.+.+.+.+.+.@.+.+.+.+.+.O.@.@.@.@.@.:.u.:.O.@.+.O.+.O.+.O.+.+.+.o.",
"w.#.#.#.+.+.+.+.#.+.#.#.+.+.+.+.#.#.#.#.#.+.#.+.$.:.u.<.#.#.#.#.&.@.@.#.#.#.$.@.+.+.$.#.$.#.#.#.#.+.#.$.5.y.*.+.#.&.#.#.#.#.&.#.#.#.@.+.$.$.#.$.$.#.#.#.$.#.;.i.",
"| . h h a a d d a a a a a a a d a p g p a a a a p # w.6 u a a d a g p g h a a d a a a d a a p g g a a + r 1.X a p p p h a d a a d d d d d d d d d d d d d d X :.",
"| M Q Q Q Q Q Q Q Q Q Q Q Q Q Q Q Q Q Q Q Q Q Q ~ : 9.^ T Q Q Q Q Q Q Q Q Q Q Q Q Q Q Q Q Q Q Q Q Q Q L ) >.S %.Q Q %.Q Q Q Q Q Q Q Q Q ~ Q Q Q ~ Q ~ ~ Q Q A :.",
"| M Q Q Q Q Q Q Q Q Q Q Q Q Q Q Q Q Q Q Q Q Q Q R : 9.^ U Q Q Q Q Q Q Q Q Q Q Q Q Q Q Q Q Q Q Q Q Q Q L ( ,.S Q Q Q Q Q Q Q Q Q Q Q Q Q E Q Q Q Q Q Q Q Q Q A :.",
"| M Q Q Q Q E Q Q Q Q Q Q Q Q Q Q Q Q Q Q Q Q Q W > 9.8 T Q Q Q Q Q Q Q Q Q Q Q Q Q Q E Q Q Q Q Q Q Q K ( >.S Q Q Q Q Q Q Q Q Q Q Q E Q Q Q Q Q E Q E Q Q Q A :.",
"| M Q Q Q Q Q Q Q Q Q Q Q Q E Q Q Q Q Q Q Q Q Q W > 9.8 T Q E Q E Q Q Q Q Q Q Q Q E Q Q Q Q Q Q Q Q Q K ( >.S Q E Q Q Q Q Q Q Q Q Q Q Q Q Q E Q Q Q Q Q Q Q A :.",
"{ M Q Q Q Q Q Q Q Q Q Q E Q Q Q Q Q Q Q Q Q Q Q W > 8.8 T Q Q Q Q Q Q Q Q Q Q Q Q Q Q E Q Q Q Q Q Q Q K ( >.f Q Q Q Q Q Q Q Q Q Q Q Q Q Q Q Q Q Q E Q Q Q Q A :.",
"| M Q Q Q Q Q Q Q Q Q Q Q Q Q Q Q Q Q Q Q Q Q Q W : 8.8 T Q Q Q Q Q Q Q Q Q Q Q Q Q Q Q Q Q Q Q Q Q Q K ( >.S %.Q Q Q Q Q Q Q Q E Q Q Q Q E Q E Q Q Q Q E Q A :.",
"| M Q Q Q Q Q Q Q Q Q Q Q Q Q E Q Q Q Q Q Q Q Q W > 9.8 U Q ~ Q Q Q Q Q Q Q Q Q Q Q Q Q Q Q Q Q Q Q E L _ ,.S Q E Q Q Q Q Q Q Q Q Q Q Q Q Q Q Q Q E Q Q Q Q A :.",
"| M Q Q Q Q E Q Q Q Q Q Q Q Q Q Q Q Q Q E Q Q Q W > 9.8 U Q Q Q E Q Q Q Q Q Q Q Q Q Q Q Q Q Q Q Q Q Q L ( ,.S Q Q Q Q Q Q Q Q Q Q Q Q Q Q Q Q Q Q Q Q Q Q Q A :.",
"| M E E E Q Q Q Q Q Q Q Q Q Q Q Q Q Q Q E Q E Q W < 9.8 U Q Q Q Q Q E Q Q Q Q Q Q Q Q Q Q Q Q Q Q Q Q L ( >.S Q Q Q Q Q Q Q Q Q Q Q Q Q Q Q Q Q Q Q Q Q Q Q A :.",
"| M Q ~ Q Q Q Q Q Q Q Q Q Q Q Q Q Q Q E Q Q Q Q ! < 9.8 U Q Q Q E Q Q Q Q Q Q Q Q E Q Q Q Q Q Q Q Q %.L ( >.S Q Q Q E Q Q Q Q Q Q Q Q Q Q Q Q Q Q Q Q Q Q ~ A :.",
"X.M Q Q Q Q Q Q Q Q Q Q Q Q Q Q Q Q Q Q Q Q Q Q W > 9.8 T Q Q Q Q Q Q Q Q Q Q Q Q Q Q Q Q Q Q Q Q Q Q K ( >.S Q Q Q Q Q Q Q Q Q Q Q Q Q Q Q Q Q E Q Q Q Q Q A :.",
"{ M %.~ Q Q ~ Q ~ %.~ E ~ Q Q Q Q Q Q %.Q Q Q Q E > 9.8 T %.Q Q Q Q %.Q Q Q %.Q Q Q Q Q Q Q %.%.Q Q %.L _ >.S %.%.Q Q Q Q Q Q Q Q Q Q Q Q Q Q Q Q Q Q Q Q Q F :.",
"{ * z z v z v l z z z z l x x x v l l l l v v x l @ 9.5 j x z x x x x x x x x x x x x x x x x x x x x u r >.% z z z z z z z x z z z z z z z z z z z x z z x o :.",
"7. . . . . . .{  . . . . . . . . . . . ...{ { {  .#.i.*. . . .{ { | | {  ...| { { { ] {  . .] ] ]  .]  .2.t.X.] [  .] [ { { { { { ] [ ] { { { { ] { { { { { o.e.",
"O.O.O.O.o.O.O.O.O.O.O.O.-.p.*.O.O.O.O.O.O.O.O.O.O.O. .O.O.O.O.O.O.O.O.O.@.o.+.e.5.O.O.O.O.O.O.O.O.O.O.O.O...O.O.O.O.O.O.O.O.O.O.o.:.p.*.O.O.@.O.O.@.O.O.+.O.@.O.",
"g g g g g g k g g g g u 9 4.. g g g g g g g g g g g g g g g g g g g g g g g . ;.] + z g g g z g z g g g g g z g z g g g g g g z h 4 9.; h j j j j F j j F d j j ",
"Q Q Q Q Q Q Q Q Q Q Q I 0 4.V Q %.Q Q Q Q Q %.%.%.%.Q Q %.Q %.Q Q Q %.Q Q Q c *.{ N %.%.%.%.Q Q Q %.%.%.%.%.%.%.Q %.%.%.Q %.Q %.! , 8.H ! Q ~ ~ ~ ~ ~ ~ ~ ~ Q ~ ",
"Q Q Q E E Q Q Q Q Q Q J 0 2.D W Q Q Q E Q Q Q Q W Q Q Q Q Q Q Q W Q Q Q Q Q c *.{ m %.Q Q Q Q Q Q %.Q Q Q Q Q Q Q Q Q Q Q %.Q Q R 2 8.H R Q Q ~ Q Q Q Q Q Q ~ Q ",
"Q Q Q Q Q Q Q E Q Q Q J / 2.Z E Q E Q Q Q E Q Q Q Q Q Q Q Q E Q %.Q Q Q Q Q j ;.} m Q Q Q Q Q Q %.Q Q Q Q Q E Q Q Q Q Q Q Q %.Q R , 8.H R Q Q Q Q ~ Q Q Q Q Q Q ",
"Q Q Q Q Q Q Q E Q Q Q I / 2.Z Q Q Q Q Q Q Q Q Q Q Q Q Q Q Q Q Q Q Q Q Q Q Q c ;.} m %.Q Q E Q Q Q Q Q Q Q Q Q Q Q Q Q Q Q Q Q Q R 7 8.> ! ~ Q Q Q Q Q Q Q Q Q Q ",
"Q Q Q Q Q Q Q Q Q Q Q Y / 4.Z Q Q Q Q Q Q Q Q Q Q Q Q Q Q Q Q Q Q Q Q Q Q Q j *.{ N Q Q Q Q Q Q Q Q Q Q Q Q Q Q Q Q Q Q Q E Q Q R , 8.G R ~ Q Q Q Q Q Q Q Q Q E ",
"Q Q Q Q E Q Q Q Q Q Q Y / 4.Z E Q Q Q Q Q Q Q Q Q Q Q E Q Q Q Q Q Q E Q Q Q c =.} N Q Q Q Q Q E Q Q Q Q Q Q Q Q Q Q Q Q Q Q Q Q R , 8.G R Q Q Q Q Q Q Q Q Q Q Q ",
"Q Q Q Q Q Q Q Q Q Q Q I / 1.Z Q Q Q E Q Q Q Q Q Q Q Q Q Q Q Q Q Q Q Q Q Q Q j *.} m Q Q Q Q Q Q Q Q E Q Q Q Q Q Q Q Q Q Q Q Q Q T 2 8.1 ! Q ~ E Q Q Q Q Q Q Q Q ",
"Q Q Q Q Q Q Q Q Q Q Q J / 1.Z Q Q Q Q Q Q Q Q Q Q E Q Q Q Q Q Q Q Q Q Q Q Q j *.} m Q Q Q Q Q Q Q Q Q Q Q E Q Q Q Q Q Q Q Q Q Q R , 8.G ! Q Q Q E Q Q E Q Q Q Q ",
"Q Q Q Q Q Q Q Q Q Q Q I / 1.Z Q Q Q Q Q Q Q Q Q Q Q Q Q Q Q Q Q Q Q Q Q Q Q c *.} m Q Q Q Q Q Q Q E Q Q Q Q Q Q Q Q Q Q Q Q Q Q R , 8.1 ! Q Q Q Q Q Q Q Q E Q Q ",
"E Q Q Q Q Q Q Q Q Q Q I / 1.Z Q Q Q Q Q Q Q Q Q Q E Q Q Q Q Q Q Q Q Q Q Q Q j *.} N Q Q Q Q Q Q Q Q Q Q E Q Q Q Q Q Q Q Q Q Q Q R , 8.G R ~ Q Q Q Q Q Q Q Q Q Q ",
"Q Q Q Q Q Q Q Q Q Q Q I / 4.Z Q Q Q Q Q Q Q Q Q Q Q Q Q Q Q Q Q Q Q Q Q Q Q j =.} m Q Q Q Q Q Q Q Q Q Q E Q Q Q Q Q Q Q Q Q Q Q R 2 8.G R ~ Q E Q Q Q Q Q Q Q Q ",
"Q Q Q Q Q Q ~ Q Q ~ Q I / 4.D Q Q Q Q Q Q Q Q Q Q Q Q Q Q Q Q Q Q Q Q Q Q %.j *.} m Q Q Q Q Q Q Q Q Q Q Q Q Q Q Q Q Q Q Q Q Q Q R , 8.G ! Q ~ E Q Q Q Q Q Q Q Q ",
"v v c c v v v v v v x s 9 4.O v k k k k l k k k k k k k k k k k k k k k k k * =.] + v v k k v v k l k k k k v v k k v v k k k k c - w.O d v k k k c k k k k c c ",
"o.o.o.o.o.o.o.o.o.o.o.o.<.y.+.o...o...o...o.| o.o.o.| | o.o.o.o.| o.o.o.o.o.O.r.0.o.o.o.o.o.o.o.o.o.o.o.o.o.o.o.o.o.o.o.o.o.o.o.o.;.i.;.o.o.X.o.o.X.o.o.o.o.o.X.",
"q.=.*.*.*.*.*.*.$.;.*.*.*.#.$.;.*.*.*.*.$.;.*.*.*.>.u.3.*.*.;.*.;.;.*.;.;.;.;.&.;.;.;.;.;.;.;.;.;.;.;.;.6.y.=.=.*.*.*.*.*.&.*.*.*.*.&.*.*.&.*.&.$.*.*.*.*.*.:.i.",
" .$ s i i i i i i s i i i i s i i i i i s s i i u # q.6 u f i i s i i i f u s f i i u f s i i i i u h * _ >.  f i f i i i C f S f u i f i i i f u C C i i u X :.",
"{ M %.~ ~ Q Q Q ~ Q Q Q Q ~ Q Q ~ ~ Q Q ~ E Q Q E > 9.3 T Q Q Q Q Q Q Q Q Q Q Q %.Q Q Q Q Q Q Q Q Q Q L ) >.S Q Q ~ Q Q ~ Q %.~ Q Q ~ ~ E ~ ~ Q ~ ~ ~ Q ~ ~ A :.",
"{ M ~ Q Q Q Q Q Q E Q E Q Q Q ~ Q Q Q Q Q Q E Q E > 9.8 T Q Q Q Q Q Q Q Q Q Q Q Q Q Q Q Q Q Q Q Q Q Q L ) ,.S Q Q E Q Q Q E Q Q Q Q Q Q Q ~ Q Q Q Q Q Q Q ~ A ;.",
"{ b Q Q Q Q Q Q E Q Q Q Q Q Q E Q Q Q Q E Q E Q W > 6.3 T Q Q Q Q Q Q Q Q E Q Q Q Q Q Q Q Q Q Q Q Q Q K ) ,.Z Q Q Q Q Q Q Q Q Q Q Q Q Q Q Q Q Q Q Q Q E Q Q A :.",
"{ b Q Q Q Q Q Q Q Q Q Q Q Q Q Q E Q Q Q Q Q Q Q W : 7.8 T Q Q Q Q Q Q E Q Q Q Q Q Q Q Q Q Q E Q Q Q Q K ) ,.f Q Q E Q Q E Q Q E E Q Q E Q Q Q Q E Q Q Q Q ~ A ;.",
"{ b Q Q Q Q Q E Q Q Q Q E Q Q Q Q Q Q Q Q E Q Q W > 7.8 U Q Q Q Q E Q Q Q Q E Q Q Q Q Q Q Q Q Q Q Q Q K _ ,.S Q Q Q Q E Q Q Q Q Q Q Q Q Q Q Q Q Q Q E Q Q Q A :.",
"X.b Q Q E Q Q Q Q Q E Q Q Q Q Q Q Q E Q Q Q Q Q W : 9.8 U Q Q E Q Q Q E Q Q Q Q Q Q Q Q Q Q Q Q Q Q Q K ) ,.S Q Q Q Q Q Q Q Q Q Q Q Q Q Q Q Q Q Q Q Q Q Q Q A ;.",
"{ b Q Q Q Q Q Q Q Q Q Q Q Q Q E Q Q Q Q Q Q Q Q W : 8.8 T Q E Q Q Q Q Q Q Q Q Q Q Q Q E Q Q Q Q Q Q Q K ) ,.S Q Q Q Q Q Q Q Q Q Q Q Q Q Q Q Q Q Q Q E Q Q Q A ;.",
"{ b Q Q Q Q Q Q Q Q E Q Q E Q Q Q Q Q Q Q Q Q Q W : 7.8 T Q Q Q Q Q Q Q Q Q Q E Q Q Q Q Q Q Q Q Q Q Q K ) ,.S Q Q Q Q Q Q Q E Q Q E Q Q Q Q E Q Q Q Q Q Q Q A ;.",
"{ b Q Q Q Q Q Q E Q Q Q Q Q Q E Q Q Q Q Q Q Q Q W : 8.8 U Q Q E Q Q Q Q Q Q Q Q E Q Q Q Q Q Q Q Q Q Q K ) ,.f Q Q Q Q Q E Q Q Q Q Q Q E E Q Q Q Q Q Q Q Q Q A ;.",
"{ b Q Q Q Q Q Q Q Q Q Q Q Q Q Q Q E Q Q Q Q Q Q W : 8.8 U Q Q Q Q Q Q Q Q Q Q Q Q Q Q Q E Q Q Q Q Q Q K ) ,.f %.Q Q Q Q Q Q Q Q E Q Q Q Q Q Q Q Q Q E Q Q Q A :.",
"X.b Q Q Q Q Q Q Q Q Q Q Q Q Q Q Q Q Q Q Q Q Q Q W < 9.8 U Q Q Q Q Q Q Q Q Q Q Q Q Q Q Q Q Q Q Q Q Q Q K ( ,.S Q Q Q Q Q Q Q Q E Q Q Q E Q Q Q E Q E Q Q Q Q A ;.",
"{ M ~ Q Q Q Q Q Q Q Q Q Q Q Q Q Q Q Q Q Q Q Q Q W < 7.3 T %.Q Q Q Q Q Q Q Q Q Q Q Q Q Q Q Q Q Q Q Q Q K _ ,.f Q Q Q Q Q Q Q E E Q Q E E Q Q E E Q Q E E Q Q A ;.",
"{ B n n M n n n n n M n M n M n M n n M n n M n b = 9.5 j l M n n n M n n M n n n n M n n n n n n n M i ( >.% M n n n n n n n n n n n n n n n n n n n n n n o ;.",
">.t t w w t t t w t w w t t w w w t w w t w w w w [ t.X.e e q r e w w w w w q w w w w w w w w w w w w r ;.w.y t t t t t w t t t w t t t w t t t w t t t w t ` 0."
};
